<svg width="45" height="99" viewBox="0 0 45 99" fill="none" xmlns="http://www.w3.org/2000/svg">
<path d="M36 0.58435C36.6154 -0.413505 39.6667 7.73506 40 9.56432L41.5 15.551L43 24.032L44.5 31.0165V40.4953V48.9764V58.9541V70.4285L44 77.9118L41.5 85.3951C42.3333 82.9007 41 87.8895 40 89.8851C39 91.8806 38.5 93.8761 34 92.8784C32.0474 91.1249 31.9526 90.1419 30 88.3885L26.5 82.9007C25.5 80.4062 23.5 77.9118 23.5 78.9096C22 78.9096 22 81.404 21.5 82.9007L19 88.8873L17 93.8762C16.5 95.3728 16 96.8694 14.5 97.8673C13.417 98.5877 11.5 99.8628 10 93.8762L7.5 87.3907L4.5 78.9096L2 70.4285L0.5 60.4508V46.9808V35.5064L2 27.5243L5.5 21.5376L11 19.5421H16.5H23.5C27 17.0476 28.5 13.5553 29.5 12.0587L32 7.06988C33.5 4.07649 34 2.08095 36 0.58435Z" fill="#D9D9D9"/>
<path d="M16.5 19.5421H11L5.5 21.5376L2 27.5243L0.5 35.5064V46.9808V60.4508L2 70.4285L4.5 78.9096L7.5 87.3907L10 93.8762C11.5 99.8628 13.417 98.5877 14.5 97.8673C16 96.8694 16.5 95.3728 17 93.8762L19 88.8873L21.5 82.9007C22 81.404 22 78.9096 23.5 78.9096C23.5 77.9118 25.5 80.4062 26.5 82.9007L30 88.3885C31.9526 90.1419 32.0474 91.1249 34 92.8784C38.5 93.8761 39 91.8806 40 89.8851C41 87.8895 42.3333 82.9007 41.5 85.3951L44 77.9118L44.5 70.4285V58.9541V48.9764V40.4953V31.0165L43 24.032L41.5 15.551L40 9.56432C39.6667 7.73506 36.6154 -0.413505 36 0.58435C34 2.08095 33.5 4.07649 32 7.06988L29.5 12.0587C28.5 13.5553 27 17.0476 23.5 19.5421M16.5 19.5421C19 19.5421 21 19.5421 23.5 19.5421M16.5 19.5421H23.5" stroke="black"/>
</svg>
