<svg width="45" height="100" viewBox="0 0 45 100" fill="none" xmlns="http://www.w3.org/2000/svg">
<path d="M9 0.584538C8.38462 -0.415543 5.33333 7.75121 5 9.58454L3.5 15.5845L2 24.0845L0.5 31.0845V40.5845V49.0845V59.0845V70.5845L1 78.0845L3.5 85.5845C2.66667 83.0845 4 88.0845 5 90.0845C6 92.0845 6.5 94.0844 11 93.0845C12.9526 91.3271 13.0474 90.3419 15 88.5845L18.5 83.0845C19.5 80.5845 21.5 78.0845 21.5 79.0845C23 79.0845 23 81.5845 23.5 83.0845L26 89.0845L28 94.0845C28.5 95.5845 29 97.0844 30.5 98.0845C31.583 98.8065 33.5 100.084 35 94.0845L37.5 87.5845L40.5 79.0845L43 70.5845L44.5 60.5845V47.0845V35.5845L43 27.5845L39.5 21.5845L34 19.5845H28.5H21.5C18 17.0845 16.5 13.5845 15.5 12.0845L13 7.08454C11.5 4.08447 11 2.08447 9 0.584538Z" fill="#D9D9D9"/>
<path d="M28.5 19.5845H34L39.5 21.5845L43 27.5845L44.5 35.5845V47.0845V60.5845L43 70.5845L40.5 79.0845L37.5 87.5845L35 94.0845C33.5 100.084 31.583 98.8065 30.5 98.0845C29 97.0844 28.5 95.5845 28 94.0845L26 89.0845L23.5 83.0845C23 81.5845 23 79.0845 21.5 79.0845C21.5 78.0845 19.5 80.5845 18.5 83.0845L15 88.5845C13.0474 90.3419 12.9526 91.3271 11 93.0845C6.5 94.0844 6 92.0845 5 90.0845C4 88.0845 2.66667 83.0845 3.5 85.5845L1 78.0845L0.5 70.5845V59.0845V49.0845V40.5845V31.0845L2 24.0845L3.5 15.5845L5 9.58454C5.33333 7.75121 8.38462 -0.415543 9 0.584538C11 2.08447 11.5 4.08447 13 7.08454L15.5 12.0845C16.5 13.5845 18 17.0845 21.5 19.5845M28.5 19.5845C26 19.5845 24 19.5845 21.5 19.5845M28.5 19.5845H21.5" stroke="black"/>
</svg>
