<svg width="73" height="96" viewBox="0 0 73 96" fill="none" xmlns="http://www.w3.org/2000/svg">
<path d="M54.0712 1.50802C54.0712 -1.63742 51.1914 3.3569 49.0712 5.86258C43.5712 12.3626 46.0712 8.86258 40.0712 16.3626C35.2712 22.3626 32.0712 26.8626 31.0712 28.3626L27.0712 34.3626C27.0712 34.1959 26.0712 35.5626 22.0712 42.3626C18.0712 49.1626 15.0712 54.8626 14.0712 56.8626L9.07123 65.8626L5.57123 73.3626L2.57123 80.8626L1.07123 85.8626C0.404563 86.3626 -0.22877 89.6626 2.57123 92.8626C5.37123 96.0626 9.40456 95.0292 11.0712 94.8626L16.0712 89.3626L24.0712 80.8626L30.5712 74.3626L37.5712 67.3626L45.0712 59.3626L52.0712 51.8626L58.5712 44.8626L64.5712 36.8626L68.0712 30.8626L71.0712 24.8626C73.3212 20.3626 70.4046 21.1959 69.0712 21.3626L65.5712 18.8626C65.2379 18.8626 64.5712 17.5626 64.5712 12.3626C64.5712 7.16258 63.2379 5.86258 62.5712 5.86258C62.5712 5.86258 61.0712 5.86258 58.5712 7.36258C56.0712 8.86258 55.0712 8.86258 55.0712 8.86258C55.0712 8.86258 54.0712 7.36258 54.0712 5.86258C54.0712 4.36258 54.0712 1.50802 54.0712 1.50802Z" fill="#D9D9D9"/>
<path d="M68.0712 30.8626L64.5712 36.8626L58.5712 44.8626L52.0712 51.8626L45.0712 59.3626L37.5712 67.3626L30.5712 74.3626L24.0712 80.8626L16.0712 89.3626L11.0712 94.8626C9.40456 95.0292 5.37123 96.0626 2.57123 92.8626C-0.22877 89.6626 0.404563 86.3626 1.07123 85.8626L2.57123 80.8626L5.57123 73.3626L9.07123 65.8626L14.0712 56.8626C15.0712 54.8626 18.0712 49.1626 22.0712 42.3626C26.0712 35.5626 27.0712 34.1959 27.0712 34.3626L31.0712 28.3626C32.0712 26.8626 35.2712 22.3626 40.0712 16.3626C46.0712 8.86258 43.5712 12.3626 49.0712 5.86258C51.1914 3.3569 54.0712 -1.63742 54.0712 1.50802M68.0712 30.8626C68.4046 30.1959 69.4712 28.0626 71.0712 24.8626M68.0712 30.8626L71.0712 24.8626M71.0712 24.8626C73.3212 20.3626 70.4046 21.1959 69.0712 21.3626L65.5712 18.8626C65.2379 18.8626 64.5712 17.5626 64.5712 12.3626C64.5712 7.16258 63.2379 5.86258 62.5712 5.86258C62.5712 5.86258 61.0712 5.86258 58.5712 7.36258C56.0712 8.86258 55.0712 8.86258 55.0712 8.86258C55.0712 8.86258 54.0712 7.36258 54.0712 5.86258C54.0712 4.36258 54.0712 1.50802 54.0712 1.50802M54.0712 1.50802V0.86258C54.4155 0.690424 54.6176 0.749441 54.0712 1.50802Z" stroke="black"/>
</svg>
