<svg width="73" height="96" viewBox="0 0 73 96" fill="none" xmlns="http://www.w3.org/2000/svg">
<path d="M18.3266 1.51172C18.3266 -1.64525 21.2066 3.36736 23.3268 5.88221C28.827 12.406 26.3269 8.8932 32.3272 16.4207C37.1274 22.4426 40.3275 26.9591 41.3275 28.4646L45.3277 34.4866C45.3277 34.3193 46.3277 35.691 50.3279 42.5159C54.3281 49.3408 57.3282 55.0616 58.3282 57.0689L63.3284 66.1019L66.8286 73.6294L69.8287 81.1568L71.3287 86.1751C71.9954 86.677 72.6288 89.989 69.8287 93.2008C67.0286 96.4125 62.9951 95.3754 61.3283 95.2081L56.3281 89.6879L48.3278 81.1568L41.8276 74.633L34.8273 67.6074L27.327 59.5781L20.3267 52.0506L13.8264 45.025L7.82621 36.9957L4.32607 30.9737L1.32595 24.9518C-0.924142 20.4353 1.99264 21.2717 3.32603 21.439L6.82617 18.9298C7.15951 18.9298 7.82621 17.6251 7.82621 12.406C7.82621 7.18697 9.15959 5.88221 9.82629 5.88221C9.82629 5.88221 11.3263 5.88221 13.8264 7.38771C16.3265 8.8932 17.3266 8.8932 17.3266 8.8932C17.3266 8.8932 18.3266 7.38771 18.3266 5.88221C18.3266 4.37672 18.3266 1.51172 18.3266 1.51172Z" fill="#D9D9D9"/>
<path d="M4.32607 30.9737L7.82621 36.9957L13.8264 45.025L20.3267 52.0506L27.327 59.5781L34.8273 67.6074L41.8276 74.633L48.3278 81.1568L56.3281 89.6879L61.3283 95.2081C62.9951 95.3754 67.0286 96.4125 69.8287 93.2008C72.6288 89.989 71.9954 86.677 71.3287 86.1751L69.8287 81.1568L66.8286 73.6294L63.3284 66.1019L58.3282 57.0689C57.3282 55.0616 54.3281 49.3408 50.3279 42.5159C46.3277 35.691 45.3277 34.3193 45.3277 34.4866L41.3275 28.4646C40.3275 26.9591 37.1274 22.4426 32.3272 16.4207C26.3269 8.8932 28.827 12.406 23.3268 5.88221C21.2066 3.36736 18.3266 -1.64525 18.3266 1.51172M4.32607 30.9737C3.99272 30.3046 2.92601 28.1635 1.32595 24.9518M4.32607 30.9737L1.32595 24.9518M1.32595 24.9518C-0.924142 20.4353 1.99264 21.2717 3.32603 21.439L6.82617 18.9298C7.15951 18.9298 7.82621 17.6251 7.82621 12.406C7.82621 7.18697 9.15959 5.88221 9.82629 5.88221C9.82629 5.88221 11.3263 5.88221 13.8264 7.38771C16.3265 8.8932 17.3266 8.8932 17.3266 8.8932C17.3266 8.8932 18.3266 7.38771 18.3266 5.88221C18.3266 4.37672 18.3266 1.51172 18.3266 1.51172M18.3266 1.51172V0.863907C17.9823 0.691121 17.7802 0.750355 18.3266 1.51172Z" stroke="black"/>
</svg>
