<svg width="66" height="99" viewBox="0 0 66 99" fill="none" xmlns="http://www.w3.org/2000/svg">
<path d="M48.0481 4.59365C47.3957 4.38003 46.5839 3.75839 44.1544 2.70224C41.6329 1.60609 38.098 0.248092 28.8157 1.50244C25.4124 1.96233 24.0854 2.98387 22.5508 3.65633C21.1864 4.2542 19.3954 5.18518 17.9514 6.38354C16.3565 7.70707 15.2687 9.6855 13.9769 11.2201C12.73 12.7014 11.9121 13.9962 11.1491 15.2922C10.3407 16.6655 9.9982 18.3068 9.28119 19.8414C8.50416 21.5045 7.66672 23.2481 7.55405 24.4394C7.34585 26.6411 6.93477 29.5145 6.4534 31.0491C5.95238 32.6464 5.68755 34.5896 5.3039 36.2693C4.86184 38.2048 4.44608 39.9578 4.05812 41.6332C3.60229 43.6017 3.19886 45.895 2.90861 48.3837C2.69743 50.1944 2.1413 56.1946 1.85537 60.0742C1.73373 61.7245 1.37689 63.425 1.18435 64.9596C0.659318 69.1442 1.37401 75.1158 1.85536 76.7481C2.2937 78.2345 3.0954 80.6676 3.81529 82.2022C4.50443 83.6713 5.86571 85.645 7.59572 87.2802C10.098 89.6453 9.28119 89.7621 11.598 91.8394C13.1629 93.2425 14.2054 93.9847 15.4512 95.0882C16.8255 96.3055 18.8954 96.094 20.5277 96.8139C22.0702 97.4942 24.4475 97.4389 26.2752 97.6775C27.8972 97.8891 33.5459 97.3858 38.598 96.8139C40.3876 96.6113 44.6491 95.9881 46.3916 95.3339C48.1341 94.6797 49.2756 93.8394 51.598 92.7481C53.9204 91.6568 55.081 89.7443 56.598 88.7481C57.9219 87.8787 58.5193 86.6863 59.598 85.2481C62.4919 81.3896 62.6859 81.3143 63.3052 79.2481C64.3316 75.8237 64.4102 70.1496 64.1673 67.9426C64.0718 67.074 63.9274 62.4221 63.8325 55.3871C63.7797 51.4716 63.3526 49.0763 63.3052 46.9238C63.1696 40.7679 62.8756 31.7331 62.4919 29.4355C61.9703 26.3116 62.0134 22.2496 61.3913 20.715C60.7691 19.1804 60.0018 17.6516 59.5233 16.0696C58.9394 14.1391 57.6108 12.9559 56.4125 11.6138C55.2141 10.2717 54.098 8.12311 52.598 7.24811C50.4002 5.96603 48.9571 5.1246 48.0481 4.59365Z" fill="#D9D9D9"/>
<path d="M48.1216 4.61618C48.0973 4.60925 48.0728 4.60174 48.0481 4.59365M47.2595 4.04142C46.1806 3.65633 47.868 4.27353 48.1748 4.47392C50.5626 6.03379 43.9939 2.22568 48.0481 4.59365M48.0481 4.59365C47.3957 4.38003 46.5839 3.75839 44.1544 2.70224C41.6329 1.60609 38.098 0.248092 28.8157 1.50244C25.4124 1.96233 24.0854 2.98387 22.5508 3.65633C21.1864 4.2542 19.3954 5.18518 17.9514 6.38354C16.3565 7.70707 15.2687 9.6855 13.9769 11.2201C12.73 12.7014 11.9121 13.9962 11.1491 15.2922C10.3407 16.6655 9.9982 18.3068 9.28119 19.8414C8.50416 21.5045 7.66672 23.2481 7.55405 24.4394C7.34585 26.6411 6.93477 29.5145 6.4534 31.0491C5.95238 32.6464 5.68755 34.5896 5.3039 36.2693C4.86184 38.2048 4.44608 39.9578 4.05812 41.6332C3.60229 43.6017 3.19886 45.895 2.90861 48.3837C2.69743 50.1944 2.1413 56.1946 1.85537 60.0742C1.73373 61.7245 1.37689 63.425 1.18435 64.9596C0.659318 69.1442 1.37401 75.1158 1.85536 76.7481C2.2937 78.2345 3.0954 80.6676 3.81529 82.2022C4.50443 83.6713 5.86571 85.645 7.59572 87.2802C10.098 89.6453 9.28119 89.7621 11.598 91.8394C13.1629 93.2425 14.2054 93.9847 15.4512 95.0882C16.8255 96.3055 18.8954 96.094 20.5277 96.8139C22.0702 97.4942 24.4475 97.4389 26.2752 97.6775C27.8972 97.8891 33.5459 97.3858 38.598 96.8139C40.3876 96.6113 44.6491 95.9881 46.3916 95.3339C48.1341 94.6797 49.2756 93.8394 51.598 92.7481C53.9204 91.6568 55.081 89.7443 56.598 88.7481C57.9219 87.8787 58.5193 86.6863 59.598 85.2481C62.4919 81.3896 62.6859 81.3143 63.3052 79.2481C64.3316 75.8237 64.4102 70.1496 64.1673 67.9426C64.0718 67.074 63.9274 62.4221 63.8325 55.3871C63.7797 51.4716 63.3526 49.0763 63.3052 46.9238C63.1696 40.7679 62.8756 31.7331 62.4919 29.4355C61.9703 26.3116 62.0134 22.2496 61.3913 20.715C60.7691 19.1804 60.0018 17.6516 59.5233 16.0696C58.9394 14.1391 57.6108 12.9559 56.4125 11.6138C55.2141 10.2717 54.098 8.12311 52.598 7.24811C50.4002 5.96603 48.9571 5.1246 48.0481 4.59365Z" stroke="black" stroke-width="2" stroke-linecap="round"/>
</svg>
