<svg width="66" height="99" viewBox="0 0 66 99" fill="none" xmlns="http://www.w3.org/2000/svg">
<path d="M17.2336 4.6038C17.8859 4.38958 18.6977 3.76618 21.1271 2.70705C23.6485 1.6078 27.1833 0.245968 36.4653 1.50386C39.8685 1.96505 41.1954 2.98948 42.7299 3.66383C44.0943 4.2634 45.8852 5.197 47.3292 6.39875C48.9241 7.72601 50.0118 9.71003 51.3035 11.249C52.5504 12.7344 53.3683 14.0329 54.1312 15.3326C54.9396 16.7097 55.2821 18.3557 55.9991 19.8946C56.7761 21.5624 57.6135 23.3109 57.7262 24.5056C57.9344 26.7135 58.3454 29.5951 58.8268 31.134C59.3278 32.7357 59.5926 34.6845 59.9763 36.3689C60.4183 38.3099 60.834 40.0678 61.222 41.748C61.6778 43.7221 62.0812 46.0218 62.3715 48.5175C62.5826 50.3334 63.1387 56.3505 63.4247 60.2411C63.5463 61.8961 63.9031 63.6013 64.0957 65.1403C64.6207 69.3366 63.906 75.3252 63.4247 76.9621C62.9863 78.4527 62.1847 80.8927 61.4648 82.4316C60.7757 83.9048 59.4145 85.8841 57.6845 87.5239C55.1823 89.8957 55.9991 90.0129 53.6824 92.096C52.1175 93.503 51.0751 94.2473 49.8293 95.3539C48.4551 96.5747 46.3852 96.3626 44.753 97.0845C43.2106 97.7667 40.8333 97.7113 39.0057 97.9505C37.3837 98.1628 31.7352 97.658 26.6833 97.0845C24.8938 96.8814 20.6324 96.2564 18.89 95.6003C17.1476 94.9443 16.0061 94.1016 13.6838 93.0073C11.3615 91.9129 10.2009 89.995 8.68396 88.996C7.36009 88.1241 6.76271 86.9284 5.68407 85.4861C2.79027 81.6166 2.59628 81.5412 1.97701 79.4691C0.950691 76.0351 0.872081 70.3449 1.11491 68.1316C1.21047 67.2606 1.35487 62.5956 1.4497 55.5407C1.50248 51.6142 1.92959 49.2121 1.97701 47.0535C2.11261 40.8802 2.40662 31.8199 2.79027 29.5158C3.31189 26.3831 3.26873 22.3097 3.89087 20.7707C4.51301 19.2318 5.28029 17.6986 5.75876 16.1121C6.34263 14.1762 7.67118 12.9896 8.86951 11.6438C10.0678 10.2979 11.1839 8.14323 12.6838 7.26575C14.8816 5.98006 16.3246 5.13625 17.2336 4.6038Z" fill="#D9D9D9"/>
<path d="M17.16 4.62639C17.1844 4.61945 17.2089 4.61192 17.2336 4.6038M18.0221 4.05001C19.101 3.66383 17.4136 4.28278 17.1069 4.48373C14.7191 6.04801 21.2876 2.22914 17.2336 4.6038M17.2336 4.6038C17.8859 4.38958 18.6977 3.76618 21.1271 2.70705C23.6485 1.6078 27.1833 0.245968 36.4653 1.50386C39.8685 1.96505 41.1954 2.98948 42.7299 3.66383C44.0943 4.2634 45.8852 5.197 47.3292 6.39875C48.9241 7.72601 50.0118 9.71003 51.3035 11.249C52.5504 12.7344 53.3683 14.0329 54.1312 15.3326C54.9396 16.7097 55.2821 18.3557 55.9991 19.8946C56.7761 21.5624 57.6135 23.3109 57.7262 24.5056C57.9344 26.7135 58.3454 29.5951 58.8268 31.134C59.3278 32.7357 59.5926 34.6845 59.9763 36.3689C60.4183 38.3099 60.834 40.0678 61.222 41.748C61.6778 43.7221 62.0812 46.0218 62.3715 48.5175C62.5826 50.3334 63.1387 56.3505 63.4247 60.2411C63.5463 61.8961 63.9031 63.6013 64.0957 65.1403C64.6207 69.3366 63.906 75.3252 63.4247 76.9621C62.9863 78.4527 62.1847 80.8927 61.4648 82.4316C60.7757 83.9048 59.4145 85.8841 57.6845 87.5239C55.1823 89.8957 55.9991 90.0129 53.6824 92.096C52.1175 93.503 51.0751 94.2473 49.8293 95.3539C48.4551 96.5747 46.3852 96.3626 44.753 97.0845C43.2106 97.7667 40.8333 97.7113 39.0057 97.9505C37.3837 98.1628 31.7352 97.658 26.6833 97.0845C24.8938 96.8814 20.6324 96.2564 18.89 95.6003C17.1476 94.9443 16.0061 94.1016 13.6838 93.0073C11.3615 91.9129 10.2009 89.995 8.68396 88.996C7.36009 88.1241 6.76271 86.9284 5.68407 85.4861C2.79027 81.6166 2.59628 81.5412 1.97701 79.4691C0.950691 76.0351 0.872081 70.3449 1.11491 68.1316C1.21047 67.2606 1.35487 62.5956 1.4497 55.5407C1.50248 51.6142 1.92959 49.2121 1.97701 47.0535C2.11261 40.8802 2.40662 31.8199 2.79027 29.5158C3.31189 26.3831 3.26873 22.3097 3.89087 20.7707C4.51301 19.2318 5.28029 17.6986 5.75876 16.1121C6.34263 14.1762 7.67118 12.9896 8.86951 11.6438C10.0678 10.2979 11.1839 8.14323 12.6838 7.26575C14.8816 5.98006 16.3246 5.13625 17.2336 4.6038Z" stroke="black" stroke-width="2" stroke-linecap="round"/>
</svg>
