<svg width="76" height="253" viewBox="0 0 76 253" fill="none" xmlns="http://www.w3.org/2000/svg">
<path d="M38 0.923396C40 -0.409919 21.5 1.92341 30.5 0.92341C26.5 0.92341 25 2.4234 22 4.4234C21 3.4234 17 15.9234 19 10.4234L17 15.9234L13.5 24.9234L11.5 33.4234L9 41.9234L6 51.9234L3.5 61.4234L2 70.4234L0.5 83.4234V91.9234V105.423C0.5 115.823 1.5 126.423 2 130.423V149.923V161.923V181.923V189.423V207.423L3.5 216.423V225.923C2.91421 229.829 3.5 231.423 3.5 235.923C3.5 240.423 7 237.923 7 237.923L13 230.423L18.5 221.923L23 213.923C24 211.423 26.8374 207.488 27.5 208.923C29.8077 213.923 29.5 216.423 29.5 216.423L31.5 230.423L34.5 242.423C35.5 246.423 37 249.423 41 251.923C45 250.923 46 247.923 47 242.423L49 230.423L50 213.923L52 197.923L54 181.923L57.5 167.423L61.5 154.423L65 138.423L67.5 123.923L69.5 110.923L72 100.923C72 100.923 71.25 103.923 74.5 91.9234C75.0417 89.9234 71 92.9234 67.5 96.4234L61.5 98.9234L52 100.923H42.5L31.5 98.9234L25 93.9234L19 87.9234L15.5 78.9234L14 66.9234L15.5 57.4234L17 45.9234L19.5 33.4234L22 23.4234L24 14.9234L26.5 10.4234L30.5 5.9234C33.4289 3.97078 35.0711 2.87602 38 0.923396Z" fill="#D9D9D9"/>
<path d="M0.5 91.9234V83.4234L2 70.4234L3.5 61.4234L6 51.9234L9 41.9234L11.5 33.4234L13.5 24.9234L17 15.9234L19 10.4234C17 15.9234 21 3.4234 22 4.4234C25 2.4234 26.5 0.92341 30.5 0.92341C21.5 1.92341 40 -0.409919 38 0.923396C35.0711 2.87602 33.4289 3.97078 30.5 5.9234L26.5 10.4234L24 14.9234L22 23.4234L19.5 33.4234L17 45.9234L15.5 57.4234L14 66.9234L15.5 78.9234L19 87.9234L25 93.9234L31.5 98.9234L42.5 100.923H52L61.5 98.9234L67.5 96.4234C71 92.9234 75.0417 89.9234 74.5 91.9234C71.25 103.923 72 100.923 72 100.923L69.5 110.923L67.5 123.923L65 138.423L61.5 154.423L57.5 167.423L54 181.923L52 197.923L50 213.923L49 230.423L47 242.423C46 247.923 45 250.923 41 251.923C37 249.423 35.5 246.423 34.5 242.423L31.5 230.423L29.5 216.423C29.5 216.423 29.8077 213.923 27.5 208.923C26.8374 207.488 24 211.423 23 213.923L18.5 221.923L13 230.423L7 237.923C7 237.923 3.5 240.423 3.5 235.923C3.5 231.423 2.91421 229.829 3.5 225.923V216.423L2 207.423V189.423V181.923V161.923V149.923V130.423C1.5 126.423 0.5 115.823 0.5 105.423M0.5 91.9234C0.5 92.0901 0.5 95.0234 0.5 105.423M0.5 91.9234V105.423" stroke="black"/>
</svg>
