<svg width="76" height="253" viewBox="0 0 76 253" fill="none" xmlns="http://www.w3.org/2000/svg">
<path d="M37.2717 0.922683C35.2595 -0.408387 53.8721 1.92101 44.8173 0.922698C48.8417 0.922698 50.3508 2.42016 53.3691 4.41679C54.3752 3.41847 58.3995 15.8974 56.3874 10.4067L58.3995 15.8974L61.9208 24.8823L63.933 33.368L66.4482 41.8536L69.4665 51.8368L71.9817 61.3208L73.4909 70.3057L75 83.2838V91.7695V105.247C75 115.629 73.9939 126.211 73.4909 130.205V149.672V161.652V181.618V189.105V207.075L71.9817 216.06V225.544C72.5711 229.443 71.9817 231.035 71.9817 235.527C71.9817 240.019 68.4604 237.524 68.4604 237.524L62.4239 230.036L56.8904 221.551L52.363 213.564C51.3569 211.068 48.5022 207.139 47.8356 208.572C45.5139 213.564 45.8234 216.06 45.8234 216.06L43.8112 230.036L40.793 242.016C39.7869 246.009 38.2778 249.004 34.2534 251.5C30.229 250.502 29.223 247.507 28.2169 242.016L26.2047 230.036L25.1986 213.564L23.1864 197.591L21.1742 181.618L17.6529 167.142L13.6286 154.164L10.1073 138.191L7.59205 123.716L5.57987 110.737L3.06465 100.754C3.06465 100.754 3.81921 103.749 0.549425 91.7695C0.00446007 89.7728 4.07074 92.7678 7.59205 96.2619L13.6286 98.7577L23.1864 100.754H32.7443L43.8112 98.7577L50.3508 93.7661L56.3874 87.7762L59.9087 78.7914L61.4178 66.8116L59.9087 57.3275L58.3995 45.8469L55.8843 33.368L53.3691 23.3848L51.3569 14.8991L48.8417 10.4067L44.8173 5.91426C41.8706 3.96493 40.2184 2.87202 37.2717 0.922683Z" fill="#D9D9D9"/>
<path d="M75 91.7695V83.2838L73.4909 70.3057L71.9817 61.3208L69.4665 51.8368L66.4482 41.8536L63.933 33.368L61.9208 24.8823L58.3995 15.8974L56.3874 10.4067C58.3995 15.8974 54.3752 3.41847 53.3691 4.41679C50.3508 2.42016 48.8417 0.922698 44.8173 0.922698C53.8721 1.92101 35.2595 -0.408387 37.2717 0.922683C40.2184 2.87202 41.8706 3.96493 44.8173 5.91426L48.8417 10.4067L51.3569 14.8991L53.3691 23.3848L55.8843 33.368L58.3995 45.8469L59.9087 57.3275L61.4178 66.8116L59.9087 78.7914L56.3874 87.7762L50.3508 93.7661L43.8112 98.7577L32.7443 100.754H23.1864L13.6286 98.7577L7.59205 96.2619C4.07074 92.7678 0.00446007 89.7728 0.549425 91.7695C3.81921 103.749 3.06465 100.754 3.06465 100.754L5.57987 110.737L7.59205 123.716L10.1073 138.191L13.6286 154.164L17.6529 167.142L21.1742 181.618L23.1864 197.591L25.1986 213.564L26.2047 230.036L28.2169 242.016C29.223 247.507 30.229 250.502 34.2534 251.5C38.2778 249.004 39.7869 246.009 40.793 242.016L43.8112 230.036L45.8234 216.06C45.8234 216.06 45.5139 213.564 47.8356 208.572C48.5022 207.139 51.3569 211.068 52.363 213.564L56.8904 221.551L62.4239 230.036L68.4604 237.524C68.4604 237.524 71.9817 240.019 71.9817 235.527C71.9817 231.035 72.5711 229.443 71.9817 225.544V216.06L73.4909 207.075V189.105V181.618V161.652V149.672V130.205C73.9939 126.211 75 115.629 75 105.247M75 91.7695C75 91.9359 75 94.8642 75 105.247M75 91.7695V105.247" stroke="black"/>
</svg>
