<svg width="62" height="162" viewBox="0 0 62 162" fill="none" xmlns="http://www.w3.org/2000/svg">
<path d="M30 0.669998L35 4.67L41.5 9.17L48.5 14.67L54.5 20.17L61 26.17L60.5 29.67L58.5 42.17L57 49.17L55.5 57.67L53.5 65.67L52.5 70.17L50.5 77.17L47 87.17L44 96.67L42.5 104.67L41 112.17L39.5 121.67V127.67V134.67L41 141.67L44 147.67L47 154.17L50.26 160.224C49.5019 159.963 47.7068 159.606 44 159.17C37.2 158.37 33.8333 158.17 32 158.17L25.5 157.17L24.5 151.17L24 147.67L23 139.17L21 131.17L18.5 125.67L14 119.17L9.5 113.67L4.5 107.17L2 103.17L0.5 96.67V89.17L2 79.17L4.5 69.17L6.5 60.17L9.5 49.17L11 43.67L13.5 34.67L15.5 27.67L17 22.17L18.5 16.67L21.5 10.67L25 5.67L30 0.669998Z" fill="#D9D9D9"/>
<path d="M50.26 160.224L47 154.17L44 147.67L41 141.67L39.5 134.67V127.67V121.67L41 112.17L42.5 104.67L44 96.67L47 87.17L50.5 77.17L52.5 70.17L53.5 65.67L55.5 57.67L57 49.17L58.5 42.17L60.5 29.67L61 26.17L54.5 20.17L48.5 14.67L41.5 9.17L35 4.67L30 0.669998L25 5.67L21.5 10.67L18.5 16.67L17 22.17L15.5 27.67L13.5 34.67L11 43.67L9.5 49.17L6.5 60.17L4.5 69.17L2 79.17L0.5 89.17V96.67L2 103.17L4.5 107.17L9.5 113.67L14 119.17L18.5 125.67L21 131.17L23 139.17L24 147.67L24.5 151.17L25.5 157.17L32 158.17C33.8333 158.17 37.2 158.37 44 159.17C47.7068 159.606 49.5019 159.963 50.26 160.224ZM50.26 160.224C50.8927 160.442 50.8033 160.594 50.5 160.67L50.26 160.224Z" stroke="black"/>
</svg>
