<svg width="62" height="162" viewBox="0 0 62 162" fill="none" xmlns="http://www.w3.org/2000/svg">
<path d="M31.5321 0.669998L26.5321 4.67L20.0321 9.17L13.0321 14.67L7.03212 20.17L0.53212 26.17L1.03212 29.67L3.03212 42.17L4.53212 49.17L6.03212 57.67L8.03212 65.67L9.03212 70.17L11.0321 77.17L14.5321 87.17L17.5321 96.67L19.0321 104.67L20.5321 112.17L22.0321 121.67V127.67V134.67L20.5321 141.67L17.5321 147.67L14.5321 154.17L11.2721 160.224C12.0302 159.963 13.8253 159.606 17.5321 159.17C24.3321 158.37 27.6988 158.17 29.5321 158.17L36.0321 157.17L37.0321 151.17L37.5321 147.67L38.5321 139.17L40.5321 131.17L43.0321 125.67L47.5321 119.17L52.0321 113.67L57.0321 107.17L59.5321 103.17L61.0321 96.67V89.17L59.5321 79.17L57.0321 69.17L55.0321 60.17L52.0321 49.17L50.5321 43.67L48.0321 34.67L46.0321 27.67L44.5321 22.17L43.0321 16.67L40.0321 10.67L36.5321 5.67L31.5321 0.669998Z" fill="#D9D9D9"/>
<path d="M11.2721 160.224L14.5321 154.17L17.5321 147.67L20.5321 141.67L22.0321 134.67V127.67V121.67L20.5321 112.17L19.0321 104.67L17.5321 96.67L14.5321 87.17L11.0321 77.17L9.03212 70.17L8.03212 65.67L6.03212 57.67L4.53212 49.17L3.03212 42.17L1.03212 29.67L0.53212 26.17L7.03212 20.17L13.0321 14.67L20.0321 9.17L26.5321 4.67L31.5321 0.669998L36.5321 5.67L40.0321 10.67L43.0321 16.67L44.5321 22.17L46.0321 27.67L48.0321 34.67L50.5321 43.67L52.0321 49.17L55.0321 60.17L57.0321 69.17L59.5321 79.17L61.0321 89.17V96.67L59.5321 103.17L57.0321 107.17L52.0321 113.67L47.5321 119.17L43.0321 125.67L40.5321 131.17L38.5321 139.17L37.5321 147.67L37.0321 151.17L36.0321 157.17L29.5321 158.17C27.6988 158.17 24.3321 158.37 17.5321 159.17C13.8253 159.606 12.0302 159.963 11.2721 160.224ZM11.2721 160.224C10.6394 160.442 10.7289 160.594 11.0321 160.67L11.2721 160.224Z" stroke="black"/>
</svg>
