<svg width="65" height="110" viewBox="0 0 65 110" fill="none" xmlns="http://www.w3.org/2000/svg">
<path d="M39.6404 0.5H33.6404H25.6404V9.5V16.5C25.6404 19.0384 25.6404 25.5 25.6404 23C25.6404 21.5 24.4214 26.3521 23.6404 28.5C18.6404 34.154 27.1404 24.7222 20.1404 32.5C16.5404 36.5 13.6404 39.5 12.6404 40.5L9.14038 46L6.14038 51L5.14038 56.5L3.64038 63L2.14038 68.5V73.5L0.640381 79.5H6.14038C5.97371 79.3333 6.64038 79.5 10.6404 81.5C14.6404 83.5 17.6404 85.3333 18.6404 86L23.6404 90L27.1404 95L30.6404 101L32.6404 108L35.1404 101L37.1404 97L39.6404 92.5L43.1404 89L47.1404 86L51.6404 83.5L55.6404 81.5L60.6404 79.5H64.1404L62.6404 71.5L61.6404 63.5L59.6404 55.5L58.1404 49.5L54.1404 44L50.1404 38.5L47.1404 34L42.6404 28.5C41.1404 26.5 39.6404 25.5 39.6404 23C39.6404 20.5 39.6404 19.0384 39.6404 16.5V9.5V0.5Z" fill="#D9D9D9" stroke="black"/>
</svg>
