<svg width="78" height="85" viewBox="0 0 78 85" fill="none" xmlns="http://www.w3.org/2000/svg">
<path d="M77.0142 3.5L70.0142 2L59.0142 1L52.5142 0.5H42.5142H33.5142H23.5142L15.0142 1L8.51416 2L1.01416 3.5C1.18083 3.66667 2.21416 4.8 5.01416 8C7.81416 11.2 10.5142 15.3333 11.5142 17L15.0142 25L18.0142 34L20.5142 43L23.5142 53L26.0142 62L28.5142 69.5L30.5142 77C30.5142 77 30.5142 78 32.0142 81C33.5142 84 35.0142 84 35.0142 84C36.9668 84 37.5142 84.25 40.0142 84L43.5142 83.5C43.5142 83.5 45.0472 82.4544 46.0142 81C46.9811 79.5456 47.5142 77 47.5142 77L49.5142 69.5L52.5142 59.5L55.0142 50.5L57.0142 43L60.0142 34L63.0142 25L66.5142 17L70.0142 12L73.5142 8L77.0142 3.5Z" fill="#D9D9D9" stroke="black"/>
</svg>
