<svg width="64" height="82" viewBox="0 0 64 82" fill="none" xmlns="http://www.w3.org/2000/svg">
<path d="M61.1296 0.697604C62.6297 0.697604 63.1298 16.7135 62.1297 18.7154C61.1296 20.7174 60.8012 21.4608 59.6295 23.2199L55.6292 29.7263L50.6288 36.7333L46.6285 42.7392L41.6281 49.7462L37.6278 55.7521L33.1275 61.7581L28.1271 68.2645L22.6267 74.771C21.6266 75.772 20.6265 77.2735 18.1264 79.2755C15.6262 81.2774 13.126 82.2784 12.6259 80.7769C12.1259 79.2755 12.1259 77.774 12.1259 75.772C12.1259 73.77 12.6259 72.2685 12.1259 70.767C11.6259 69.2655 11.2116 68.9368 10.6258 67.764C10.0399 67.1777 10.1257 66.7631 9.12566 66.2626C8.12559 65.7621 7.12551 65.7621 5.12536 66.2626C3.1252 66.7631 2.12513 67.764 1.12505 67.764C0.124976 67.764 0.625014 65.0187 0.625014 63.2596C0.625014 61.5005 0.458335 60.7571 1.12505 58.7551C1.79177 56.7531 3.56314 54.2891 5.12536 51.7482L9.6257 44.2407L12.6259 39.2358L16.1262 33.7303L20.1265 27.2239L24.1268 21.2179L27.6271 16.213L33.1275 9.70651L36.6278 6.70354L40.6281 4.70155L46.1285 3.70056L52.129 3.20006L56.1292 2.19909C63.1298 -0.303393 59.6295 0.697604 61.1296 0.697604Z" fill="#D9D9D9" stroke="black"/>
</svg>
