<svg width="64" height="82" viewBox="0 0 64 82" fill="none" xmlns="http://www.w3.org/2000/svg">
<path d="M2.02029 0.697408C0.520276 0.697408 0.020246 16.6974 1.02026 18.6974C2.02027 20.6974 2.34868 21.44 3.52026 23.1974L7.52026 29.6974L12.5203 36.6974L16.5203 42.6974L21.5203 49.6974L25.5203 55.6974L30.0203 61.6974L35.0203 68.1974L40.5203 74.6974C41.5203 75.6974 42.5203 77.1974 45.0203 79.1974C47.5203 81.1974 50.0203 82.1974 50.5203 80.6974C51.0203 79.1974 51.0203 77.6974 51.0203 75.6974C51.0203 73.6974 50.5203 72.1974 51.0203 70.6974C51.5203 69.1974 51.9345 68.869 52.5203 67.6974C53.106 67.1116 53.0203 66.6974 54.0203 66.1974C55.0203 65.6974 56.0203 65.6974 58.0203 66.1974C60.0203 66.6974 61.0203 67.6974 62.0203 67.6974C63.0203 67.6974 62.5203 64.9548 62.5203 63.1974C62.5203 61.44 62.6869 60.6974 62.0203 58.6974C61.3536 56.6974 59.5824 54.2358 58.0203 51.6974L53.5203 44.1974L50.5203 39.1974L47.0203 33.6974L43.0203 27.1974L39.0203 21.1974L35.5203 16.1974L30.0203 9.69738L26.5203 6.69739L22.5203 4.69739L17.0203 3.69739L11.0203 3.19739L7.02029 2.19741C0.0202942 -0.302597 3.52031 0.697408 2.02029 0.697408Z" fill="#D9D9D9" stroke="black"/>
</svg>
