<svg width="23" height="59" viewBox="0 0 23 59" fill="none" xmlns="http://www.w3.org/2000/svg">
<path d="M0.770844 1.04559L10.7708 7.04559L22.1968 10.5231C21.1566 10.2352 18.8326 11.2507 17.2708 15.5456C15.6708 19.9456 15.2708 25.5456 15.2708 28.0456V37.0456L13.7708 48.5456V58.0456L10.7708 44.0456L6.77084 25.5456L0.770844 1.04559Z" fill="#D9D9D9"/>
<path d="M22.1968 10.5231L10.7708 7.04559L0.770844 1.04559L6.77084 25.5456L10.7708 44.0456L13.7708 58.0456V48.5456L15.2708 37.0456V28.0456C15.2708 25.5456 15.6708 19.9456 17.2708 15.5456C18.8326 11.2507 21.1566 10.2352 22.1968 10.5231ZM22.1968 10.5231C22.2222 10.5301 22.2469 10.5376 22.2708 10.5456L22.1968 10.5231Z" stroke="black"/>
</svg>
