<svg width="23" height="59" viewBox="0 0 23 59" fill="none" xmlns="http://www.w3.org/2000/svg">
<path d="M21.6581 1.04559L11.6581 7.04559L0.232172 10.5231C1.27236 10.2352 3.59635 11.2507 5.15811 15.5456C6.75811 19.9456 7.15811 25.5456 7.15811 28.0456V37.0456L8.65811 48.5456V58.0456L11.6581 44.0456L15.6581 25.5456L21.6581 1.04559Z" fill="#D9D9D9"/>
<path d="M0.232172 10.5231L11.6581 7.04559L21.6581 1.04559L15.6581 25.5456L11.6581 44.0456L8.65811 58.0456V48.5456L7.15811 37.0456V28.0456C7.15811 25.5456 6.75811 19.9456 5.15811 15.5456C3.59635 11.2507 1.27236 10.2352 0.232172 10.5231ZM0.232172 10.5231C0.206706 10.5301 0.182009 10.5376 0.158112 10.5456L0.232172 10.5231Z" stroke="black"/>
</svg>
