<svg width="40" height="241" viewBox="0 0 40 241" fill="none" xmlns="http://www.w3.org/2000/svg">
<path d="M37.5007 0.852661L27.0007 2.85266L22.5007 4.85266L18.5007 12.8527L14.0007 23.3527L10.5007 35.3527L6.50067 49.3527L4.00067 61.3527L2.00067 73.3527L0.500671 83.3527L2.00067 166.353L3.50067 185.353V201.853L5.00067 213.353L6.50067 221.353L5.00067 229.353V235.853V239.853L10.0007 235.853L15.5007 227.853L18.5007 218.353L22.0007 205.853L25.0007 192.353L27.0007 180.353L29.0007 167.853L31.0007 155.853L34.0007 99.8527L25.0007 95.8527L20.0007 88.8527L16.5007 80.8527L14.0007 68.8527L15.5007 54.8527L16.5007 44.3527L18.5007 32.8527L21.5007 21.3527L25.0007 14.3527L28.5007 8.35266L37.5007 0.852661Z" fill="#D9D9D9" stroke="black"/>
</svg>
