<svg width="40" height="242" viewBox="0 0 40 242" fill="none" xmlns="http://www.w3.org/2000/svg">
<path d="M1.79852 0.853088L12.2985 2.86146L16.7985 4.86982L20.7985 12.9033L25.2985 23.4472L28.7985 35.4974L32.7985 49.556L35.2985 61.6062L37.2985 73.6564L38.7985 83.6983L37.2985 167.046L35.7985 186.125V202.694L34.2985 214.242L32.7985 222.276L34.2985 230.309V236.836V240.853L29.2985 236.836L23.7985 228.803L20.7985 219.263L17.2985 206.711L14.2985 193.154L12.2985 181.104L10.2985 168.552L8.29852 156.502L5.29852 100.267L14.2985 96.2506L19.2985 89.2213L22.7985 81.1878L25.2985 69.1376L23.7985 55.079L22.7985 44.5351L20.7985 32.987L17.7985 21.4389L14.2985 14.4096L10.7985 8.38447L1.79852 0.853088Z" fill="#D9D9D9" stroke="black"/>
</svg>
