<svg width="64" height="163" viewBox="0 0 64 163" fill="none" xmlns="http://www.w3.org/2000/svg">
<path d="M30.5 0.731461L34.5 4.73146L42.5 9.73146L50.5 15.7315L58 21.7315L62.5 26.2315L61 30.7315V44.2315L58 51.7315L56 61.7315L54.5 70.7315L51 78.7315L48 88.7315L45 99.2315L42.5 110.731L41 119.231V135.731L42.5 143.731L47 152.731L52 162.231L42 160.231L26.5 159.231L24 148.231L23 135.231L18.5 125.731L10.5 116.231L3.5 106.731L0.5 101.231V91.2315L2 79.7315L3.5 70.7315L7.5 55.2315L12 39.7315L16.5 24.2315L20.5 13.7315L24 8.73146L27 4.73146L30.5 0.731461Z" fill="#D9D9D9" stroke="black"/>
</svg>
