<svg width="64" height="163" viewBox="0 0 64 163" fill="none" xmlns="http://www.w3.org/2000/svg">
<path d="M32.5721 0.731461L28.5721 4.73146L20.5721 9.73146L12.5721 15.7315L5.07207 21.7315L0.572067 26.2315L2.07207 30.7315V44.2315L5.07207 51.7315L7.07207 61.7315L8.57207 70.7315L12.0721 78.7315L15.0721 88.7315L18.0721 99.2315L20.5721 110.731L22.0721 119.231V135.731L20.5721 143.731L16.0721 152.731L11.0721 162.231L21.0721 160.231L36.5721 159.231L39.0721 148.231L40.0721 135.231L44.5721 125.731L52.5721 116.231L59.5721 106.731L62.5721 101.231V91.2315L61.0721 79.7315L59.5721 70.7315L55.5721 55.2315L51.0721 39.7315L46.5721 24.2315L42.5721 13.7315L39.0721 8.73146L36.0721 4.73146L32.5721 0.731461Z" fill="#D9D9D9" stroke="black"/>
</svg>
