<svg width="68" height="114" viewBox="0 0 68 114" fill="none" xmlns="http://www.w3.org/2000/svg">
<path d="M41.6181 1.13622L37.6181 3.63622H33.6181H29.1181L26.1181 1.13622L27.1181 15.1362L26.1181 25.6362L18.6181 36.6362L11.6181 44.6362L7.61807 50.6362L5.11807 57.1362L3.61807 66.1362L2.11807 76.1362L0.618073 82.1362L7.11807 83.1362L13.6181 85.6362L21.1181 89.6362L26.1181 94.1362L30.1181 100.636L32.1181 105.636L33.6181 111.136L35.1181 105.636L37.6181 100.636L41.6181 94.1362L47.1181 89.6362L54.1181 85.6362L61.1181 83.1362L67.1181 82.1362L65.1181 76.1362L63.6181 66.1362L62.1181 56.1362L59.6181 50.6362L55.6181 44.6362L49.6181 38.1362L45.1181 31.6362L41.6181 25.6362L40.1181 15.1362L41.6181 1.13622Z" fill="#D9D9D9" stroke="black"/>
</svg>
