<svg width="73" height="167" viewBox="0 0 73 167" fill="none" xmlns="http://www.w3.org/2000/svg">
<path d="M40.6908 2.26837C40.3295 2.45352 40.0065 2.693 39.7357 2.97635L39.6022 3.11602C38.1362 4.65008 35.4544 4.54372 34.145 2.89959C33.9593 2.66643 33.7386 2.45738 33.4892 2.27838L33.056 1.96753C31.732 1.01755 30.087 0.5 28.3915 0.5H25.0946C23.7156 0.5 22.3418 0.651686 21.004 0.951662L17.8891 1.65015C15.2253 2.24746 12.6315 3.0725 10.1433 4.11396L8.95415 4.61172C6.53567 5.624 4.10905 6.74343 2.41208 8.591C1.44803 9.64062 0.753848 10.6893 0.753848 11.2529C0.753848 12.3167 0.182965 16.8165 0.753848 18.9335C2.64068 23.3336 3.60827 28.0076 3.60827 32.722V36.7558V48.1199L4.17915 61.433V72.1859V88.5712L5.32092 101.884L7.03358 114.673L8.74622 122.878L11.2002 130.949C11.8469 133.076 12.6629 135.158 13.642 137.18L15.3945 140.8C13.945 137.352 14.2975 137.297 17.3775 145.143C20.1305 150.78 24.6492 158.666 29.7479 163.024C31.8717 164.839 34.9126 166.688 37.8374 166.485C40.2586 166.316 41.5252 164.548 43.1244 162.908L46.2589 159.696C47.8896 158.024 49.3834 156.249 50.7287 154.384L52.5284 151.889C54.1649 149.621 55.5758 147.228 56.7448 144.737L59.555 138.751C61.8385 131.242 66.6339 114.26 67.5474 106.417C68.4608 98.5739 68.6891 96.9742 68.6891 94.549V88.5712V81.4026V74.7461V67.0655L69.8309 56.8246V48.1199V40.4393V32.7586V32.5124C69.8309 29.5004 70.1602 26.4958 70.8138 23.5414L71.5435 20.2434L72.3639 15.991C72.576 14.8917 72.5401 13.7652 72.2582 12.6784C71.7947 10.8916 70.6874 9.29155 69.1078 8.12609L67.9656 7.28336C66.9313 6.52024 65.7774 5.89768 64.5411 5.43566L59.555 3.57225L55.5588 2.03613L52.6805 1.17558C51.1839 0.728119 49.6165 0.5 48.039 0.5H46.9268C45.1013 0.5 43.3074 0.927287 41.7225 1.73962L40.6908 2.26837Z" fill="#D9D9D9" stroke="black"/>
</svg>
