<svg width="75" height="211" viewBox="0 0 75 211" fill="none" xmlns="http://www.w3.org/2000/svg">
<path d="M36.1691 0.5L32.6691 9L30.1691 17.5L27.6691 28V39V54.5V73L30.1691 87L32.6691 97.5V108V115.5V124.5V137V146.5L30.1691 153.5L25.6691 164L20.1691 172.5L15.6691 178.5L9.16905 183.5L5.66905 189L2.66905 192L0.669052 196C0.335719 196 0.269052 196.6 2.66905 199C5.66905 202 6.66905 204 9.16905 205.5C11.1691 206.7 16.0024 207.333 18.1691 207.5L25.6691 209.5L32.6691 202.5L41.6691 196L44.1691 187L54.6691 178.5V166.5V153.5L56.6691 142.5V121.5L61.1691 101L66.6691 81.5L73.6691 64.5V39L71.6691 26V9L63.6691 15.5L53.1691 16.5L46.6691 11.5L41.6691 5.5L39.6691 0.5H36.1691Z" fill="#D9D9D9" stroke="black"/>
</svg>
