<svg width="75" height="211" viewBox="0 0 75 211" fill="none" xmlns="http://www.w3.org/2000/svg">
<path d="M38.0004 0.5L41.5005 9L44.0005 17.5L46.5006 28V39V54.5V73L44.0005 87L41.5005 97.5V108V115.5V124.5V137V146.5L44.0005 153.5L48.5006 164L54.0006 172.5L58.5007 178.5L65.0008 183.5L68.5008 189L71.5009 192L73.5009 196C73.8342 196 73.9009 196.6 71.5009 199C68.5008 202 67.5008 204 65.0008 205.5C63.0008 206.7 58.1674 207.333 56.0007 207.5L48.5006 209.5L41.5005 202.5L32.5004 196L30.0003 187L19.5002 178.5V166.5V153.5L17.5002 142.5V121.5L13.0001 101L7.50007 81.5L0.499987 64.5V39L2.50001 26V9L10.5001 15.5L21.0002 16.5L27.5003 11.5L32.5004 5.5L34.5004 0.5H38.0004Z" fill="#D9D9D9" stroke="black"/>
</svg>
