<svg width="92" height="80" viewBox="0 0 92 80" fill="none" xmlns="http://www.w3.org/2000/svg">
<path d="M91.4041 11.5V53L89.4041 58.5L85.9041 64.5L81.4041 69.5L74.9041 73.5L69.4041 77L60.4041 79.5H51.4041L39.4041 77L31.4041 73.5L24.9041 69.5L20.4041 64.5L15.4041 58.5L8.90411 53L1.40411 51L6.40411 48.5L12.4041 43.5L20.4041 34L27.9041 25.5L34.4041 17.5L41.4041 11.5L48.4041 7L55.9041 2.5L62.4041 0.5H69.4041H76.9041L83.4041 2.5L87.4041 5.5L90.4041 8.5L91.4041 11.5Z" fill="#D9D9D9" stroke="black"/>
</svg>
