<svg width="80" height="110" viewBox="0 0 80 110" fill="none" xmlns="http://www.w3.org/2000/svg">
<path d="M53.0261 1.70239L48.5261 8.70239L42.0261 15.7024L36.0261 22.7024L29.0261 31.7024L25.5261 38.7024L21.0261 48.7024L16.5261 59.2024L11.5261 71.7024L5.52608 85.2024L0.526085 99.2024L2.02608 104.202L4.02608 107.202L7.02608 109.202H11.5261L15.0261 107.202L19.5261 102.202L25.5261 95.2024L33.5261 89.2024L42.0261 80.7024L50.0261 73.2024L55.0261 67.2024L60.5261 59.2024L65.0261 48.7024L69.5261 40.7024L74.0261 34.7024L79.0261 28.2024L72.0261 31.7024H65.0261L59.0261 29.7024L55.0261 25.7024L53.0261 20.2024V13.2024V1.70239Z" fill="#D9D9D9" stroke="black"/>
</svg>
