<svg width="80" height="110" viewBox="0 0 80 110" fill="none" xmlns="http://www.w3.org/2000/svg">
<path d="M26.3963 1.70239L30.8963 8.70239L37.3963 15.7024L43.3963 22.7024L50.3963 31.7024L53.8963 38.7024L58.3963 48.7024L62.8963 59.2024L67.8963 71.7024L73.8963 85.2024L78.8963 99.2024L77.3963 104.202L75.3963 107.202L72.3963 109.202H67.8963L64.3963 107.202L59.8963 102.202L53.8963 95.2024L45.8963 89.2024L37.3963 80.7024L29.3963 73.2024L24.3963 67.2024L18.8963 59.2024L14.3963 48.7024L9.8963 40.7024L5.3963 34.7024L0.396301 28.2024L7.3963 31.7024H14.3963L20.3963 29.7024L24.3963 25.7024L26.3963 20.2024V13.2024V1.70239Z" fill="#D9D9D9" stroke="black"/>
</svg>
