<svg width="35" height="78" viewBox="0 0 35 78" fill="none" xmlns="http://www.w3.org/2000/svg">
<path d="M2.5257 9.69196L8.5257 11.192L13.5257 8.19196L17.5257 1.19196L20.0257 8.19196L22.0257 15.192L26.0257 23.692L32.0257 36.692L33.5257 49.692V63.192L32.0257 72.692L30.5257 76.692L28.5257 74.692V67.192L26.0257 54.692L25.0257 70.192H23.0257V54.692L22.0257 47.192L20.0257 40.192L17.5257 36.692H14.5257L13.5257 47.192L12.0257 52.192L9.5257 52.692L7.5257 50.692L6.0257 47.192V36.692L4.5257 29.192L2.5257 23.692L0.525696 20.192L2.5257 9.69196Z" fill="#D9D9D9" stroke="black"/>
</svg>
