<svg width="34" height="23" viewBox="0 0 34 23" fill="none" xmlns="http://www.w3.org/2000/svg">
<g clip-path="url(#clip0_2_28)">
<path d="M0 3V6.5V10.125V13.875V17.625L1.43207 20.75L3.30357 22L5.5 23H10H14H18H22H24.5L32 21L29 19L25.5 16.5L20.5 14.5L15.5 12.5L10.7896 10.125L5.5 7.5L0 3Z" fill="#FF0000"/>
<path d="M-56 3V6.5V10.125V13.875V17.625L-57.4321 20.75L-59.3036 22H-62.4227H-67H-69.2849H-73.6518H-77.3948H-79.5566L-88 21L-85 19L-81.5 16.5L-76.5 14.5L-71.5 12.5L-66.7896 10.125L-61.5 7.5L-56 3Z" fill="#FF0000"/>
<path d="M0 3V6.5V10.125V13.875V17.625L1.43207 20.75L3.30357 22L5.5 23H10H14H18H22H24.5L32 21L29 19L25.5 16.5L20.5 14.5L15.5 12.5L10.7896 10.125L5.5 7.5L0 3Z" stroke="white"/>
<path d="M-56 3V6.5V10.125V13.875V17.625L-57.4321 20.75L-59.3036 22H-62.4227H-67H-69.2849H-73.6518H-77.3948H-79.5566L-88 21L-85 19L-81.5 16.5L-76.5 14.5L-71.5 12.5L-66.7896 10.125L-61.5 7.5L-56 3Z" stroke="white"/>
</g>
<defs>
<clipPath id="clip0_2_28">
<rect width="34" height="23" fill="white"/>
</clipPath>
</defs>
</svg>
