<svg width="34" height="23" viewBox="0 0 34 23" fill="none" xmlns="http://www.w3.org/2000/svg">
<g clip-path="url(#clip0_2_30)">
<path d="M34 3.2369V6.7369V10.3619V14.1119V17.8619L32.5679 20.9869L30.6964 22.2369H27.5773H23H21H16.3482H12.6052H10.4434L2 21.2369L5 19.2369L8.5 16.7369L13.5 14.7369L18.5 12.7369L23.2104 10.3619L28.5 7.7369L34 3.2369Z" fill="#FF0000"/>
<path d="M90 3.2369V6.7369V10.3619V14.1119V17.8619L91.4321 20.9869L93.3036 22.2369H96.4227H101H103.285H107.652H111.395H113.557L122 21.2369L119 19.2369L115.5 16.7369L110.5 14.7369L105.5 12.7369L100.79 10.3619L95.5 7.7369L90 3.2369Z" fill="#FF0000"/>
<path d="M34 3.2369V6.7369V10.3619V14.1119V17.8619L32.5679 20.9869L30.6964 22.2369H27.5773H23H21H16.3482H12.6052H10.4434L2 21.2369L5 19.2369L8.5 16.7369L13.5 14.7369L18.5 12.7369L23.2104 10.3619L28.5 7.7369L34 3.2369Z" stroke="white"/>
<path d="M90 3.2369V6.7369V10.3619V14.1119V17.8619L91.4321 20.9869L93.3036 22.2369H96.4227H101H103.285H107.652H111.395H113.557L122 21.2369L119 19.2369L115.5 16.7369L110.5 14.7369L105.5 12.7369L100.79 10.3619L95.5 7.7369L90 3.2369Z" stroke="white"/>
</g>
<defs>
<clipPath id="clip0_2_30">
<rect width="34" height="23" fill="white" transform="matrix(-1 0 0 1 34 0)"/>
</clipPath>
</defs>
</svg>
