<svg width="72" height="59" viewBox="0 0 72 59" fill="none" xmlns="http://www.w3.org/2000/svg">
<path d="M23.0934 1.02723L2.09338 4.52723L50.5934 52.5272L70.5934 57.5272V50.0272L59.0934 20.5272L47.0934 9.02723L23.0934 1.02723Z" fill="#FF0000"/>
<path d="M23.0934 1.02723L2.09338 4.52723L50.5934 52.5272L70.5934 57.5272V50.0272L59.0934 20.5272L47.0934 9.02723L23.0934 1.02723Z" fill="#FF0000"/>
<path d="M23.0934 1.02723L2.09338 4.52723L50.5934 52.5272L70.5934 57.5272V50.0272L59.0934 20.5272L47.0934 9.02723L23.0934 1.02723Z" fill="#FF0000"/>
<path d="M23.0934 1.02723L2.09338 4.52723L50.5934 52.5272L70.5934 57.5272V50.0272L59.0934 20.5272L47.0934 9.02723L23.0934 1.02723Z" fill="#FF0000"/>
<path d="M23.0934 1.02723L2.09338 4.52723L50.5934 52.5272L70.5934 57.5272V50.0272L59.0934 20.5272L47.0934 9.02723L23.0934 1.02723Z" fill="#FF0000"/>
<path d="M23.0934 1.02723L2.09338 4.52723L50.5934 52.5272L70.5934 57.5272V50.0272L59.0934 20.5272L47.0934 9.02723L23.0934 1.02723Z" fill="#FF0000"/>
<path d="M23.0934 1.02723L2.09338 4.52723L50.5934 52.5272L70.5934 57.5272V50.0272L59.0934 20.5272L47.0934 9.02723L23.0934 1.02723Z" fill="#FF0000"/>
<path d="M23.0934 1.02723L2.09338 4.52723L50.5934 52.5272L70.5934 57.5272V50.0272L59.0934 20.5272L47.0934 9.02723L23.0934 1.02723Z" fill="#FF0000"/>
<path d="M23.0934 1.02723L2.09338 4.52723L50.5934 52.5272L70.5934 57.5272V50.0272L59.0934 20.5272L47.0934 9.02723L23.0934 1.02723Z" fill="#FF0000"/>
<path d="M23.0934 1.02723L2.09338 4.52723L50.5934 52.5272L70.5934 57.5272V50.0272L59.0934 20.5272L47.0934 9.02723L23.0934 1.02723Z" stroke="white" stroke-width="2"/>
</svg>
