<svg width="72" height="59" viewBox="0 0 72 59" fill="none" xmlns="http://www.w3.org/2000/svg">
<path d="M48.5 1.02723L69.5 4.52723L21 52.5272L1 57.5272V50.0272L12.5 20.5272L24.5 9.02723L48.5 1.02723Z" fill="#FF0000"/>
<path d="M48.5 1.02723L69.5 4.52723L21 52.5272L1 57.5272V50.0272L12.5 20.5272L24.5 9.02723L48.5 1.02723Z" fill="#FF0000"/>
<path d="M48.5 1.02723L69.5 4.52723L21 52.5272L1 57.5272V50.0272L12.5 20.5272L24.5 9.02723L48.5 1.02723Z" fill="#FF0000"/>
<path d="M48.5 1.02723L69.5 4.52723L21 52.5272L1 57.5272V50.0272L12.5 20.5272L24.5 9.02723L48.5 1.02723Z" fill="#FF0000"/>
<path d="M48.5 1.02723L69.5 4.52723L21 52.5272L1 57.5272V50.0272L12.5 20.5272L24.5 9.02723L48.5 1.02723Z" fill="#FF0000"/>
<path d="M48.5 1.02723L69.5 4.52723L21 52.5272L1 57.5272V50.0272L12.5 20.5272L24.5 9.02723L48.5 1.02723Z" fill="#FF0000"/>
<path d="M48.5 1.02723L69.5 4.52723L21 52.5272L1 57.5272V50.0272L12.5 20.5272L24.5 9.02723L48.5 1.02723Z" fill="#FF0000"/>
<path d="M48.5 1.02723L69.5 4.52723L21 52.5272L1 57.5272V50.0272L12.5 20.5272L24.5 9.02723L48.5 1.02723Z" fill="#FF0000"/>
<path d="M48.5 1.02723L69.5 4.52723L21 52.5272L1 57.5272V50.0272L12.5 20.5272L24.5 9.02723L48.5 1.02723Z" fill="#FF0000"/>
<path d="M48.5 1.02723L69.5 4.52723L21 52.5272L1 57.5272V50.0272L12.5 20.5272L24.5 9.02723L48.5 1.02723Z" stroke="white" stroke-width="2"/>
</svg>
