<svg width="59" height="103" viewBox="0 0 59 103" fill="none" xmlns="http://www.w3.org/2000/svg">
<path d="M0.5 10.4906V26.4755L1.52655 39.4633L3.06637 51.9395L4.60619 59.944L6.81255 67.8176C7.39398 69.8926 8.12766 71.9237 9.00792 73.8969L10.5836 77.4275C9.28037 74.0647 9.59727 74.0108 12.3665 81.6646C14.8416 87.1644 18.9044 94.8571 23.4885 99.1091C25.398 100.879 28.132 102.684 30.7616 102.485C32.9385 102.32 34.0773 100.596 35.5152 98.9962L38.3333 95.8622C39.7995 94.2307 41.1425 92.4994 42.3521 90.6801L43.9701 88.2464C45.4415 86.0334 46.71 83.6986 47.7611 81.2689L50.2876 75.4294C52.3407 68.1033 56.6522 51.5369 57.4735 43.8851C58.2947 36.2337 58.5 34.6732 58.5 32.3072V26.4755V19.4821V12.9882V5.4953V0.5H0.5V10.4906Z" fill="#D9D9D9" stroke="black"/>
</svg>
