<svg width="41" height="42" viewBox="0 0 41 42" fill="none" xmlns="http://www.w3.org/2000/svg">
<path d="M40.4443 0.868146H33.4443C26.4443 -0.631858 22.4443 2.86815 20.9443 3.86815L15.4443 8.86814L9.94426 14.8681L6.94426 19.8681L3.94426 25.3681L2.44426 29.8681L0.944262 34.8681C0.944262 37.016 -0.0557398 41.3681 0.944262 40.3681C0.944262 41.3681 4.60112 37.016 6.94426 34.8681L12.9443 28.3681L17.9443 23.8681L23.4443 17.8681L28.9443 12.3681L33.4443 7.86815L40.4443 0.868146Z" fill="#D9D9D9"/>
<path d="M40.4443 0.868146C40.7776 0.868146 35.3999 1.2872 33.4443 0.868146M40.4443 0.868146L33.4443 7.86815L28.9443 12.3681L23.4443 17.8681L17.9443 23.8681L12.9443 28.3681L6.94426 34.8681C4.60112 37.016 0.944262 41.3681 0.944262 40.3681C-0.0557398 41.3681 0.944262 37.016 0.944262 34.8681L2.44426 29.8681L3.94426 25.3681L6.94426 19.8681L9.94426 14.8681L15.4443 8.86814L20.9443 3.86815C22.4443 2.86815 26.4443 -0.631858 33.4443 0.868146M40.4443 0.868146H33.4443" stroke="black"/>
</svg>
