<svg width="41" height="41" viewBox="0 0 41 41" fill="none" xmlns="http://www.w3.org/2000/svg">
<path d="M0.501698 0.868004H7.50182C14.502 -0.631422 18.502 2.86723 20.002 3.86685L25.5021 8.86492L31.0022 14.8626L34.0023 19.8607L37.0024 25.3586L38.5024 29.8568L40.0024 34.8549C40.0024 37.002 41.0024 41.3524 40.0024 40.3528C40.0024 41.3524 36.3455 37.002 34.0023 34.8549L28.0022 28.3574L23.0021 23.8592L17.502 17.8615L12.0019 12.3636L7.50182 7.86532L0.501698 0.868004Z" fill="#D9D9D9"/>
<path d="M0.501697 0.868004C0.168357 0.868004 5.54618 1.2869 7.50183 0.868004M0.501697 0.868004L7.50183 7.86532L12.0019 12.3636L17.502 17.8615L23.0021 23.8592L28.0022 28.3574L34.0023 34.8549C36.3455 37.002 40.0024 41.3524 40.0024 40.3528C41.0024 41.3524 40.0024 37.002 40.0024 34.8549L38.5024 29.8568L37.0024 25.3586L34.0023 19.8607L31.0022 14.8626L25.5021 8.86492L20.002 3.86685C18.502 2.86723 14.502 -0.631422 7.50183 0.868004M0.501697 0.868004H7.50183" stroke="black"/>
</svg>
