<svg width="58" height="65" viewBox="0 0 58 65" fill="none" xmlns="http://www.w3.org/2000/svg">
<g filter="url(#filter0_d_13_81)">
<path d="M52.8814 12.7499C53.2931 10.4576 53.5001 8.13475 53.5001 5.80792V0.5H33.0253L31.5967 5.80792L27.6554 10.9382C27.4499 11.3596 27.2356 11.8016 27.0122 12.2654C24.1597 18.1861 18.3529 26.2442 15.806 29.5341L11.0821 35.3294C9.14263 37.7096 7.45987 40.2752 6.06011 42.9859L5.10898 44.8292C4.09022 46.4732 4.19209 48.9737 6.63712 49.7631C9.69339 50.7499 4.59961 51.2432 15.806 54.2036C22.9812 56.0991 27.8071 56.4351 30.2315 56.3253C30.5234 56.0542 31.6104 55.4304 34.1437 54.2036C38.4655 52.1106 41.891 48.9411 43.8885 46.6695C44.9032 45.515 45.35 44.02 45.35 42.5043C45.35 40.2258 46.4166 38.0056 48.674 37.3642C51.1433 36.6636 53.5001 36.3942 53.5001 33.9746C53.5001 31.9102 53.3594 30.1025 53.1461 28.4999C52.4466 23.2473 51.9445 17.968 52.8814 12.7499Z" fill="#D9D9D9"/>
<path d="M30.2315 56.3253C27.8071 56.4351 22.9812 56.0991 15.806 54.2036C4.59961 51.2432 9.69339 50.7499 6.63712 49.7631C4.19209 48.9737 4.09022 46.4732 5.10898 44.8292L6.06011 42.9859C7.45987 40.2752 9.14263 37.7096 11.0821 35.3294L15.806 29.5341C18.3529 26.2442 24.1597 18.1861 27.0122 12.2654C27.2356 11.8016 27.4499 11.3596 27.6554 10.9382L31.5967 5.80792L33.0253 0.5H53.5001V5.80792C53.5001 8.13475 53.2931 10.4576 52.8814 12.7499C51.9445 17.968 52.4466 23.2473 53.1461 28.4999C53.3594 30.1025 53.5001 31.9102 53.5001 33.9746C53.5001 36.3942 51.1433 36.6636 48.674 37.3642C46.4166 38.0056 45.35 40.2258 45.35 42.5043C45.35 44.02 44.9032 45.515 43.8885 46.6695C41.891 48.9411 38.4655 52.1106 34.1437 54.2036C31.6104 55.4304 30.5234 56.0542 30.2315 56.3253ZM30.2315 56.3253C30.8363 56.2979 31.2916 56.2427 31.5967 56.1771C30.7471 56.4515 29.866 56.6648 30.2315 56.3253Z" stroke="black"/>
</g>
<defs>
<filter id="filter0_d_13_81" x="0" y="0" width="58.0001" height="65.0001" filterUnits="userSpaceOnUse" color-interpolation-filters="sRGB">
<feFlood flood-opacity="0" result="BackgroundImageFix"/>
<feColorMatrix in="SourceAlpha" type="matrix" values="0 0 0 0 0 0 0 0 0 0 0 0 0 0 0 0 0 0 127 0" result="hardAlpha"/>
<feOffset dy="4"/>
<feGaussianBlur stdDeviation="2"/>
<feComposite in2="hardAlpha" operator="out"/>
<feColorMatrix type="matrix" values="0 0 0 0 0 0 0 0 0 0 0 0 0 0 0 0 0 0 0.25 0"/>
<feBlend mode="normal" in2="BackgroundImageFix" result="effect1_dropShadow_13_81"/>
<feBlend mode="normal" in="SourceGraphic" in2="effect1_dropShadow_13_81" result="shape"/>
</filter>
</defs>
</svg>
