<svg width="50" height="57" viewBox="0 0 50 57" fill="none" xmlns="http://www.w3.org/2000/svg">
<path d="M1.11869 12.7499C0.707012 10.4576 0.5 8.13475 0.5 5.80792V0.5H20.9748L22.4034 5.80792L26.3447 10.9382C26.5502 11.3596 26.7645 11.8016 26.9878 12.2654C29.8404 18.1861 35.6472 26.2442 38.1941 29.5341L42.918 35.3294C44.8575 37.7096 46.5402 40.2752 47.94 42.9859L48.8911 44.8292C49.9099 46.4732 49.808 48.9737 47.363 49.7631C44.3067 50.7499 49.4005 51.2432 38.1941 54.2036C31.0189 56.0991 26.193 56.4351 23.7686 56.3253C23.4767 56.0542 22.3896 55.4304 19.8564 54.2036C15.5345 52.1106 12.1091 48.9411 10.1116 46.6695C9.0969 45.515 8.65007 44.02 8.65007 42.5043C8.65007 40.2258 7.58353 38.0056 5.32607 37.3642C2.8568 36.6636 0.5 36.3942 0.5 33.9746C0.5 31.9102 0.64069 30.1025 0.854019 28.4999C1.5535 23.2473 2.05555 17.968 1.11869 12.7499Z" fill="#D9D9D9"/>
<path d="M23.7686 56.3253C26.193 56.4351 31.0189 56.0991 38.1941 54.2036C49.4005 51.2432 44.3067 50.7499 47.363 49.7631C49.808 48.9737 49.9099 46.4732 48.8911 44.8292L47.94 42.9859C46.5402 40.2752 44.8575 37.7096 42.918 35.3294L38.1941 29.5341C35.6472 26.2442 29.8404 18.1861 26.9878 12.2654C26.7645 11.8016 26.5502 11.3596 26.3447 10.9382L22.4034 5.80792L20.9748 0.5H0.499999V5.80792C0.499999 8.13475 0.707013 10.4576 1.11869 12.7499C2.05554 17.968 1.5535 23.2473 0.854018 28.4999C0.64069 30.1025 0.499999 31.9102 0.499999 33.9746C0.499999 36.3942 2.8568 36.6636 5.32607 37.3642C7.58354 38.0056 8.65007 40.2258 8.65007 42.5043C8.65007 44.02 9.0969 45.515 10.1116 46.6695C12.1091 48.9411 15.5345 52.1106 19.8564 54.2036C22.3896 55.4304 23.4767 56.0542 23.7686 56.3253ZM23.7686 56.3253C23.1638 56.2979 22.7085 56.2427 22.4034 56.1771C23.253 56.4515 24.1341 56.6648 23.7686 56.3253Z" stroke="black"/>
</svg>
