<svg width="23" height="138" viewBox="0 0 23 138" fill="none" xmlns="http://www.w3.org/2000/svg">
<path d="M14 7.63446V16.6345L15 26.6345C15.8 34.6345 16.3333 41.4678 16.5 43.6345V49.6345L17 53.6345L18 61.1345V66.1345L19 77.6345L20 85.6345V96.1345L21 105.634L22 120.634V129.634V136.134L18 132.634V120.634L15 108.134L13.5 97.1345L11.5 83.6345L9.5 70.1345L7.5 59.1345L5 52.6345L1.5 42.6345L0.5 32.6345V23.6345V14.6345V4.63446L1.5 1.13446L4 4.63446L7.5 6.13446L14 7.63446Z" fill="#D9D9D9"/>
<path d="M14 16.6345V7.63446L7.5 6.13446L4 4.63446L1.5 1.13446L0.5 4.63446V14.6345V23.6345V32.6345L1.5 42.6345L5 52.6345L7.5 59.1345L9.5 70.1345L11.5 83.6345L13.5 97.1345L15 108.134L18 120.634V132.634L22 136.134V129.634V120.634L21 105.634L20 96.1345V85.6345L19 77.6345L18 66.1345V61.1345L17 53.6345L16.5 49.6345V43.6345C16.3333 41.4678 15.8 34.6345 15 26.6345M14 16.6345C14 16.6345 13.8699 15.3332 15 26.6345M14 16.6345L15 26.6345" stroke="black"/>
</svg>
