<svg width="23" height="138" viewBox="0 0 23 138" fill="none" xmlns="http://www.w3.org/2000/svg">
<path d="M8.5 7.63446V16.6345L7.5 26.6345C6.7 34.6345 6.16667 41.4678 6 43.6345V49.6345L5.5 53.6345L4.5 61.1345V66.1345L3.5 77.6345L2.5 85.6345V96.1345L1.5 105.634L0.5 120.634V129.634V136.134L4.5 132.634V120.634L7.5 108.134L9 97.1345L11 83.6345L13 70.1345L15 59.1345L17.5 52.6345L21 42.6345L22 32.6345V23.6345V14.6345V4.63446L21 1.13446L18.5 4.63446L15 6.13446L8.5 7.63446Z" fill="#D9D9D9"/>
<path d="M8.5 16.6345V7.63446L15 6.13446L18.5 4.63446L21 1.13446L22 4.63446V14.6345V23.6345V32.6345L21 42.6345L17.5 52.6345L15 59.1345L13 70.1345L11 83.6345L9 97.1345L7.5 108.134L4.5 120.634V132.634L0.5 136.134V129.634V120.634L1.5 105.634L2.5 96.1345V85.6345L3.5 77.6345L4.5 66.1345V61.1345L5.5 53.6345L6 49.6345V43.6345C6.16667 41.4678 6.7 34.6345 7.5 26.6345M8.5 16.6345C8.5 16.6345 8.63013 15.3332 7.5 26.6345M8.5 16.6345L7.5 26.6345" stroke="black"/>
</svg>
