<svg width="99" height="65" viewBox="0 0 99 65" fill="none" xmlns="http://www.w3.org/2000/svg">
<path d="M0.203064 0.464233C1.70306 1.1309 6.60306 5.26423 10.2031 10.4642C13.8031 15.6642 16.7031 21.4642 18.2031 24.4642C18.8697 26.4642 21.2031 31.7642 25.2031 36.9642C29.2031 42.1642 34.2031 48.4642 36.2031 50.9642L44.7031 59.4642L49.2031 63.9642L54.2031 59.4642L63.2031 50.9642L74.7031 35.4642L82.2031 22.9642L91.2031 8.96423L97.7031 2.46423L89.2031 5.96423L79.7031 12.9642C74.7031 16.4642 71.2031 21.993 72.7031 19.9642C74.2031 17.9355 69.7031 24.4642 68.2031 28.4642L61.2031 36.9642L56.2031 42.9642L49.2031 45.9642L40.2031 40.4642L32.7031 30.9642C30.7504 26.6685 29.2031 22.4642 26.7031 18.9642C24.2031 15.4642 20.9988 14.1742 16.7031 10.4642L10.2031 4.46423L0.203064 0.464233Z" fill="#D9D9D9" stroke="black"/>
</svg>
