<svg width="41" height="85" viewBox="0 0 41 85" fill="none" xmlns="http://www.w3.org/2000/svg">
<path d="M28 1.52731C28 4.02731 28.7 9.22731 31.5 10.0273C34.3 10.8273 38.6667 11.694 40.5 12.0273C39.1667 12.194 36.2 13.5273 35 17.5273C33.8 21.5273 36.1667 28.194 37.5 31.0273L35 41.5273L31.5 50.0273L29.5 55.0273L26.5 64.0273H23.5L21.5 59.5273V46.0273L15 50.0273L13 55.0273L10.5 64.0273L13 71.5273V76.5273L10.5 79.0273L7.5 83.5273L2.5 79.0273L0.5 69.5273V55.0273L4.5 41.5273L10.5 28.0273L18 17.5273L22.5 9.02731L28 1.52731Z" fill="#D9D9D9" stroke="black"/>
</svg>
