<svg width="39" height="85" viewBox="0 0 39 85" fill="none" xmlns="http://www.w3.org/2000/svg">
<path d="M11.969 1.59241C11.969 4.09241 11.304 9.29241 8.644 10.0924C5.98399 10.8924 1.83566 11.7591 0.0939941 12.0924C1.36066 12.2591 4.17899 13.5924 5.319 17.5924C6.45899 21.5924 4.21066 28.2591 2.944 31.0924L5.319 41.5924L8.644 50.0924L10.544 55.0924L13.394 64.0924H16.244L18.144 59.5924V46.0924L24.319 50.0924L26.219 55.0924L28.594 64.0924L26.219 71.5924V76.5924L28.594 79.0924L31.444 83.5924L36.194 79.0924L38.094 69.5924V55.0924L34.294 41.5924L28.594 28.0924L21.469 17.5924L17.194 9.09241L11.969 1.59241Z" fill="#D9D9D9" stroke="black"/>
</svg>
