<svg width="69" height="156" viewBox="0 0 69 156" fill="none" xmlns="http://www.w3.org/2000/svg">
<path d="M1.20711 0.5L6.70711 6L12.2071 13.5L16.2071 24.5L19.7071 38L22.2071 52.5L23.7071 65.5L25.2071 79L27.2071 92.5L28.7071 105L31.7071 116.5L35.2071 126.5L38.2071 136.5L41.7071 143.5L43.2071 155.5L46.7071 145.5L49.7071 126.5L54.2071 109.5L56.2071 95.5L59.2071 83.5L62.2071 75L68.2071 72V68.5L59.2071 61L51.7071 52.5L43.2071 41.5L35.2071 28L27.2071 13.5L19.7071 7.5L12.2071 3L6.70711 0.5H1.20711Z" fill="#D9D9D9" stroke="black"/>
</svg>
