<svg width="45" height="59" viewBox="0 0 45 59" fill="none" xmlns="http://www.w3.org/2000/svg">
<path d="M43.9371 1.38885C42.4371 -0.611162 37.2328 1.38885 32.9371 1.38885L27.4371 3.38885L22.9371 7.38885L18.4371 13.3888L14.4371 20.8888L10.9371 29.3888L8.43707 38.3889L5.93707 46.3889L2.93707 53.3889L0.437073 57.8889L5.93707 53.3889L10.9371 48.3889C13.866 46.8268 19.4371 45.3889 18.4371 44.3889C19.4371 46.3889 18.4371 39.5131 18.4371 36.3889L20.4371 29.3888L22.9371 22.3888L27.4371 15.3888L32.9371 9.38885L38.4371 4.88885C40.585 3.52201 45.4371 1.38885 43.9371 1.38885Z" fill="#D9D9D9" stroke="black"/>
</svg>
