<svg width="45" height="58" viewBox="0 0 45 58" fill="none" xmlns="http://www.w3.org/2000/svg">
<path d="M0.782887 1.38282C2.28279 -0.603633 7.48668 1.38282 11.7822 1.38282L17.2818 3.36927L21.7815 7.34216L26.2812 13.3015L30.281 20.7507L33.7807 29.1931L36.2806 38.1321L38.7804 46.0779L41.7802 53.0304L44.2801 57.5L38.7804 53.0304L33.7807 48.0643C30.852 46.5128 25.2813 45.0847 26.2812 44.0914C25.2813 46.0779 26.2812 39.2487 26.2812 36.1457L24.2814 29.1931L21.7815 22.2405L17.2818 15.2879L11.7822 9.32861L6.28253 4.85911C4.13478 3.50153 -0.717018 1.38283 0.782887 1.38282Z" fill="#D9D9D9" stroke="black"/>
</svg>
