<svg width="51" height="52" viewBox="0 0 51 52" fill="none" xmlns="http://www.w3.org/2000/svg">
<path d="M47.8551 0.577399C49.3551 0.0774155 50.8551 41.5774 48.8551 39.5774C49.8551 40.5774 43.6746 40.7964 40.3551 41.5774L33.3551 43.0774L28.8551 46.5774C27.4883 48.1395 26.7488 50.5774 25.3551 50.5774C23.8551 50.5774 22.6125 48.1395 20.8551 46.5774L15.8551 43.0774L7.85512 41.0774C3.85512 40.5774 2.85512 41.0774 0.855124 39.5774C-0.144881 36.5774 1.05472 -1.43545 3.35512 0.577399C6.47932 3.31107 8.23093 4.84373 11.3551 7.5774C16.8225 9.1395 19.3551 11.5774 25.3551 11.5774C31.3551 11.5774 33.583 9.1395 38.8551 7.5774C42.3698 4.84373 45.9571 1.21004 47.8551 0.577399Z" fill="#D9D9D9" stroke="black"/>
</svg>
