<svg width="26" height="208" viewBox="0 0 26 208" fill="none" xmlns="http://www.w3.org/2000/svg">
<path d="M16.4445 0.556194C16.4445 0.556194 13.9445 -0.943835 12.9445 11.5562C12.7845 13.5562 4.94446 38.7229 3.94446 44.5562L0.94446 57.5562V70.0562C0.94446 88.0562 -0.0555412 103.556 0.94446 114.056L1.94446 129.056L2.94446 145.056L3.94446 157.056L4.94446 171.056C5.27779 171.223 5.24446 174.356 6.44446 185.556C7.64446 196.756 9.11113 201.39 9.94446 203.056C10.7778 204.723 12.4445 207.056 14.9445 207.056C14.9445 207.056 14.9445 208.556 20.4445 201.056C26.5401 192.744 24.9445 178.723 24.9445 173.056L22.9445 149.556L20.4445 129.056L18.4445 111.556L17.4445 95.0562L16.4445 75.5562V57.5562L17.4445 41.5562C17.4445 41.5562 17.4445 37.0562 18.4445 27.0562C19.4445 17.0562 20.4445 7.05617 20.4445 3.55618L16.4445 0.556194Z" fill="#D9D9D9"/>
<path d="M0.94446 57.5562L3.94446 44.5562C4.94446 38.7229 12.7845 13.5562 12.9445 11.5562C13.9445 -0.943835 16.4445 0.556194 16.4445 0.556194L20.4445 3.55618C20.4445 7.05617 19.4445 17.0562 18.4445 27.0562C17.4445 37.0562 17.4445 41.5562 17.4445 41.5562L16.4445 57.5562V75.5562L17.4445 95.0562L18.4445 111.556L20.4445 129.056L22.9445 149.556L24.9445 173.056C24.9445 178.723 26.5401 192.744 20.4445 201.056C14.9445 208.556 14.9445 207.056 14.9445 207.056C12.4445 207.056 10.7778 204.723 9.94446 203.056C9.11113 201.39 7.64446 196.756 6.44446 185.556C5.24446 174.356 5.27779 171.223 4.94446 171.056L3.94446 157.056L2.94446 145.056L1.94446 129.056L0.94446 114.056C-0.0555412 103.556 0.94446 88.0562 0.94446 70.0562M0.94446 57.5562C0.94446 54.2229 0.94446 52.0562 0.94446 70.0562M0.94446 57.5562V70.0562" stroke="black"/>
</svg>
