<svg width="26" height="208" viewBox="0 0 26 208" fill="none" xmlns="http://www.w3.org/2000/svg">
<path d="M9.09179 0.556282C9.09179 0.556282 11.5641 -0.946081 12.553 11.5734C12.7112 13.5765 20.4644 38.7823 21.4533 44.6247L24.4201 57.6449V70.1644C24.4201 88.1924 25.409 103.716 24.4201 114.233L23.4312 129.256L22.4423 145.281L21.4533 157.3L20.4644 171.321C20.1348 171.488 20.1677 174.627 18.981 185.844C17.7943 197.061 16.3439 201.702 15.5198 203.371C14.6957 205.04 13.0475 207.377 10.5752 207.377C10.5752 207.377 10.5752 208.88 5.1361 201.368C-0.891993 193.043 0.685942 179 0.685942 173.325L2.66379 149.788L5.1361 129.256L7.11394 111.729L8.10287 95.2033L9.09179 75.6729V57.6449L8.10287 41.62C8.10287 41.62 8.10286 37.113 7.11394 27.0975C6.12502 17.0819 5.1361 7.06637 5.1361 3.56094L9.09179 0.556282Z" fill="#D9D9D9"/>
<path d="M24.4201 57.6449L21.4533 44.6247C20.4644 38.7823 12.7112 13.5765 12.553 11.5734C11.5641 -0.946081 9.09179 0.556282 9.09179 0.556282L5.1361 3.56094C5.1361 7.06637 6.12502 17.0819 7.11394 27.0975C8.10286 37.113 8.10286 41.62 8.10286 41.62L9.09179 57.6449V75.6729L8.10286 95.2033L7.11394 111.729L5.1361 129.256L2.66379 149.788L0.685941 173.325C0.685941 179 -0.891992 193.043 5.1361 201.368C10.5752 208.88 10.5752 207.377 10.5752 207.377C13.0475 207.377 14.6957 205.04 15.5198 203.371C16.3439 201.702 17.7943 197.061 18.981 185.844C20.1677 174.627 20.1348 171.488 20.4644 171.321L21.4533 157.3L22.4423 145.281L23.4312 129.256L24.4201 114.233C25.409 103.716 24.4201 88.1924 24.4201 70.1644M24.4201 57.6449C24.4201 54.3064 24.4201 52.1364 24.4201 70.1644M24.4201 57.6449V70.1644" stroke="black"/>
</svg>
