<svg width="30" height="223" viewBox="0 0 30 223" fill="none" xmlns="http://www.w3.org/2000/svg">
<path d="M24.5259 1.23385C24.5259 0.0671864 23.9259 -0.566147 21.5259 6.23385C19.1541 12.954 17.5636 16.6465 17.044 17.6975C16.9216 18.3745 16.5192 20.5189 15.5259 25.7339C13.9259 34.1339 12.8592 44.2339 12.5259 48.2339L11.0259 61.7339L9.02591 73.2339L7.02591 85.7339L5.52591 95.7339L4.02591 104.234L2.52591 110.734L0.525909 117.734V125.734V136.734V144.734V154.734L2.02591 162.234L3.52591 169.234V175.734V181.234V188.234V194.234L2.02591 200.234L0.525909 206.234L3.52591 213.234L6.02591 218.734L9.52591 222.234H13.5259L17.0259 217.234L19.0259 209.734L20.5259 203.234L23.0259 198.734L27.0259 197.234L25.5259 194.234L23.0259 190.234L20.5259 184.234V161.234L21.5259 148.734L23.0259 136.734L24.5259 125.734L25.5259 113.734L27.5259 98.2339L29.0259 82.7339V67.7339V42.7339L27.5259 22.2339L26.5259 11.2339L24.5259 1.23385Z" fill="#D9D9D9"/>
<path d="M24.5259 1.23385C24.5259 0.0671864 23.9259 -0.566147 21.5259 6.23385C19.1541 12.954 17.5636 16.6465 17.044 17.6975M24.5259 1.23385C25.307 5.1391 25.7449 7.32861 26.5259 11.2339M24.5259 1.23385L26.5259 11.2339M26.5259 11.2339L27.5259 22.2339L29.0259 42.7339V67.7339V82.7339L27.5259 98.2339L25.5259 113.734L24.5259 125.734L23.0259 136.734L21.5259 148.734L20.5259 161.234V184.234L23.0259 190.234L25.5259 194.234L27.0259 197.234L23.0259 198.734L20.5259 203.234L19.0259 209.734L17.0259 217.234L13.5259 222.234H9.52591L6.02591 218.734L3.52591 213.234L0.525909 206.234L2.02591 200.234L3.52591 194.234V188.234V181.234V175.734V169.234L2.02591 162.234L0.525909 154.734V144.734V136.734V125.734V117.734L2.52591 110.734L4.02591 104.234L5.52591 95.7339L7.02591 85.7339L9.02591 73.2339L11.0259 61.7339L12.5259 48.2339C12.8592 44.2339 13.9259 34.1339 15.5259 25.7339C16.5192 20.5189 16.9216 18.3745 17.044 17.6975M17.044 17.6975C17.1188 17.284 17.0891 17.4179 17.0259 17.7339C17.0318 17.7221 17.0378 17.71 17.044 17.6975Z" stroke="black"/>
</svg>
