<svg width="30" height="223" viewBox="0 0 30 223" fill="none" xmlns="http://www.w3.org/2000/svg">
<path d="M5 1.23473C5 0.0666668 5.6 -0.567427 8 6.24074C10.3718 12.9689 11.9623 16.6659 12.4819 17.7181C12.6043 18.3959 13.0067 20.5429 14 25.7641C15.6 34.1742 16.6667 44.2864 17 48.2912L18.5 61.8074L20.5 73.3212L22.5 85.8362L24 95.8482L25.5 104.358L27 110.866L29 117.875V125.884V136.897V144.907V154.919L27.5 162.428L26 169.436V175.944V181.451V188.459V194.466L27.5 200.474L29 206.481L26 213.489L23.5 218.996L20 222.5H16L12.5 217.494L10.5 209.985L9 203.477L6.5 198.972L2.5 197.47L4 194.466L6.5 190.462L9 184.454V161.427L8 148.912L6.5 136.897L5 125.884L4 113.87L2 98.3512L0.5 82.8326V67.8146V42.7845L2 22.2599L3 11.2467L5 1.23473Z" fill="#D9D9D9"/>
<path d="M5 1.23473C5 0.0666668 5.6 -0.567427 8 6.24074C10.3718 12.9689 11.9623 16.6659 12.4819 17.7181M5 1.23473C4.21895 5.14467 3.78105 7.33681 3 11.2467M5 1.23473L3 11.2467M3 11.2467L2 22.2599L0.5 42.7846V67.8146V82.8326L2 98.3512L4 113.87L5 125.884L6.5 136.897L8 148.912L9 161.427V184.454L6.5 190.462L4 194.466L2.5 197.47L6.5 198.972L9 203.477L10.5 209.985L12.5 217.494L16 222.5H20L23.5 218.996L26 213.489L29 206.481L27.5 200.474L26 194.466V188.459V181.451V175.944V169.436L27.5 162.428L29 154.919V144.907V136.897V125.884V117.875L27 110.866L25.5 104.358L24 95.8482L22.5 85.8362L20.5 73.3212L18.5 61.8074L17 48.2912C16.6667 44.2864 15.6 34.1742 14 25.7641C13.0067 20.5429 12.6043 18.3959 12.4819 17.7181M12.4819 17.7181C12.4072 17.3042 12.4368 17.4382 12.5 17.7545C12.4941 17.7428 12.4881 17.7306 12.4819 17.7181Z" stroke="black"/>
</svg>
