<svg width="53" height="70" viewBox="0 0 53 70" fill="none" xmlns="http://www.w3.org/2000/svg">
<path d="M2 1.44666C1.5 1.28 0.5 1.74666 0.5 4.94666C0.5 8.14666 2.5 14.28 3.5 16.9467L9.5 24.9467L17 34.4467L24 42.9467L31 51.9467L35.5 57.9467L40 63.9467C40.5 64.9467 43.9 67.6467 47.5 68.4467C51.1 69.2467 53.5 65.9467 51.5 62.9467L49 58.9467L44.5 51.9467L40 46.4467L35.5 39.9467L31 34.4467L26 27.9467L21 18.9467L17 12.4467L11.5 4.94666L7 1.44666C5.5 0.44667 3.5 -0.0533378 2 1.44666Z" fill="#D9D9D9" stroke="black"/>
</svg>
