<svg width="53" height="70" viewBox="0 0 53 70" fill="none" xmlns="http://www.w3.org/2000/svg">
<path d="M50.7201 1.44669C51.2201 1.28002 52.22 1.7467 52.22 4.94678C52.22 8.14686 50.2202 14.2804 49.2203 16.9471L43.2209 24.9473L35.7216 34.4476L28.7223 42.9478L21.7229 51.948L17.2234 57.9482L12.7238 63.9483C12.2239 64.9483 8.8242 67.6484 5.22454 68.4484C1.62489 69.2485 -0.774879 65.9484 1.22493 62.9483L3.72469 58.9482L8.22425 51.948L12.7238 46.4479L17.2234 39.9477L21.7229 34.4476L26.7225 27.9474L31.722 18.9471L35.7216 12.447L41.2211 4.94678L45.7206 1.44669C47.2205 0.446668 49.2203 -0.0533522 50.7201 1.44669Z" fill="#D9D9D9" stroke="black"/>
</svg>
