<svg width="36" height="130" viewBox="0 0 36 130" fill="none" xmlns="http://www.w3.org/2000/svg">
<path d="M3.50408 1.01026C2.42696 -0.0515 0.5 0.653163 0.5 2.1088V2.6345C0.5 5.6915 2.5674 11.9074 2.5674 12.315C2.5674 12.7226 3.42883 17.7497 4.118 19.9575L5.66861 25.0525C6.35778 27.2604 7.73601 34.3254 7.73601 34.733C7.73601 35.1406 9.45888 39.9978 10.3203 42.3755L12.3878 49.5085L14.9721 58.6795L16.5227 67.341L17.0395 75.493V84.6641C17.0395 86.825 16.4377 89.1724 15.7251 91.0911C15.43 91.8856 12.1421 98.6378 11.8709 99.4396L10.8372 103.006L8.76982 108.101C7.73601 111.158 6.59895 114.419 6.1854 115.234C4.89325 117.781 4.118 121.348 3.6011 121.348C3.0843 121.348 1.01679 127.462 1.5337 127.972C2.05049 128.481 0.499996 129.5 7.73601 129.5C11.133 129.5 14.7552 128.623 17.7257 127.692C21.0447 126.652 23.8619 124.588 26.0199 122.036C27.2618 120.567 28.2758 118.936 28.8195 117.14C29.4666 115.004 29.9612 112.807 29.9612 112.177C29.9612 111.158 30.9948 106.573 30.9948 104.534V93.3256L32.0286 82.1165V70.7405C32.0286 70.5126 32.0488 70.285 32.0891 70.0602C32.6988 66.6544 34.2365 56.9326 34.7464 53.5128C34.8594 52.7551 34.9865 51.9316 35.1298 51.0371C35.8364 46.6256 35.4411 42.5278 34.7027 39.1515C33.516 33.7254 29.8778 29.1443 25.5986 25.2719C25.3393 25.0373 25.0707 24.7944 24.7924 24.543C19.8307 20.0594 13.0769 13.1642 10.3203 10.277L6.1854 4.6725L3.68017 1.21504C3.62757 1.14247 3.56872 1.07398 3.50408 1.01026Z" fill="#D9D9D9" stroke="black"/>
</svg>
