<svg width="36" height="130" viewBox="0 0 36 130" fill="none" xmlns="http://www.w3.org/2000/svg">
<path d="M32.4959 1.01026C33.573 -0.0515 35.5 0.653163 35.5 2.1088V2.6345C35.5 5.6915 33.4326 11.9074 33.4326 12.315C33.4326 12.7226 32.5712 17.7497 31.882 19.9575L30.3314 25.0525C29.6422 27.2604 28.264 34.3254 28.264 34.733C28.264 35.1406 26.5411 39.9978 25.6797 42.3755L23.6122 49.5085L21.0279 58.6795L19.4773 67.341L18.9605 75.493V84.6641C18.9605 86.825 19.5623 89.1724 20.2749 91.0911C20.57 91.8856 23.8579 98.6378 24.1291 99.4396L25.1628 103.006L27.2302 108.101C28.264 111.158 29.4011 114.419 29.8146 115.234C31.1068 117.781 31.882 121.348 32.3989 121.348C32.9157 121.348 34.9832 127.462 34.4663 127.972C33.9495 128.481 35.5 129.5 28.264 129.5C24.867 129.5 21.2448 128.623 18.2743 127.692C14.9553 126.652 12.1381 124.588 9.9801 122.036C8.7382 120.567 7.72415 118.936 7.18053 117.14C6.53345 115.004 6.03884 112.807 6.03884 112.177C6.03884 111.158 5.00515 106.573 5.00515 104.534V93.3256L3.97142 82.1165V70.7405C3.97142 70.5126 3.95119 70.285 3.91094 70.0602C3.30122 66.6544 1.76346 56.9326 1.25359 53.5128C1.14063 52.7551 1.01353 51.9316 0.870236 51.0371C0.163636 46.6256 0.558929 42.5278 1.29732 39.1515C2.48397 33.7254 6.12218 29.1443 10.4014 25.2719C10.6607 25.0373 10.9293 24.7944 11.2076 24.543C16.1693 20.0594 22.9231 13.1642 25.6797 10.277L29.8146 4.6725L32.3198 1.21504C32.3724 1.14247 32.4313 1.07398 32.4959 1.01026Z" fill="#D9D9D9" stroke="black"/>
</svg>
