<svg width="68" height="94" viewBox="0 0 68 94" fill="none" xmlns="http://www.w3.org/2000/svg">
<g filter="url(#filter0_d_7_30)">
<path d="M4.86786 1.78986L16.3679 15.2899L24.8679 22.2899L31.8679 28.2899L36.3679 33.2899L41.3679 39.2899L46.8679 47.2899L52.8679 56.7899L58.3679 66.2899L63.3679 74.7899V79.2899L61.3679 84.7899L54.8679 76.2899L46.8679 66.2899L37.8679 56.7899L29.8679 47.2899L21.8679 39.2899L16.3679 33.2899L10.3679 26.7899L6.36786 22.2899L7.86786 15.2899L6.36786 9.28986L4.86786 1.78986Z" fill="#D9D9D9"/>
<path d="M4.86786 1.78986L16.3679 15.2899L24.8679 22.2899L31.8679 28.2899L36.3679 33.2899L41.3679 39.2899L46.8679 47.2899L52.8679 56.7899L58.3679 66.2899L63.3679 74.7899V79.2899L61.3679 84.7899L54.8679 76.2899L46.8679 66.2899L37.8679 56.7899L29.8679 47.2899L21.8679 39.2899L16.3679 33.2899L10.3679 26.7899L6.36786 22.2899L7.86786 15.2899L6.36786 9.28986L4.86786 1.78986Z" stroke="black"/>
</g>
<defs>
<filter id="filter0_d_7_30" x="0" y="0" width="67.8679" height="93.8192" filterUnits="userSpaceOnUse" color-interpolation-filters="sRGB">
<feFlood flood-opacity="0" result="BackgroundImageFix"/>
<feColorMatrix in="SourceAlpha" type="matrix" values="0 0 0 0 0 0 0 0 0 0 0 0 0 0 0 0 0 0 127 0" result="hardAlpha"/>
<feOffset dy="4"/>
<feGaussianBlur stdDeviation="2"/>
<feComposite in2="hardAlpha" operator="out"/>
<feColorMatrix type="matrix" values="0 0 0 0 0 0 0 0 0 0 0 0 0 0 0 0 0 0 0.25 0"/>
<feBlend mode="normal" in2="BackgroundImageFix" result="effect1_dropShadow_7_30"/>
<feBlend mode="normal" in="SourceGraphic" in2="effect1_dropShadow_7_30" result="shape"/>
</filter>
</defs>
</svg>
