<svg width="32" height="75" viewBox="0 0 32 75" fill="none" xmlns="http://www.w3.org/2000/svg">
<path d="M23 1.38113L21 5.88113L18 8.88113L13 10.8811H8.5L5 8.88113L7 13.8811L3.5 18.8811L2 22.8811V28.3811V34.8811L0.5 42.3811V47.3811L2 50.8811H5L7 47.3811V42.3811V36.8811H10.5L13 39.8811L15 43.8811L16.5 50.8811V56.8811L15 60.8811L13 64.8811L15 67.3811L19 61.3811L21 56.8811H23L21 62.8811L18 67.3811L16.5 70.8811V73.3811L21 70.8811L27 64.8811L29.5 55.3811L31 42.3811L27 26.8811L24.5 16.8811V5.88113L23 1.38113Z" fill="#D9D9D9" stroke="black"/>
</svg>
