<svg width="32" height="75" viewBox="0 0 32 75" fill="none" xmlns="http://www.w3.org/2000/svg">
<path d="M8.50735 1.38113L10.5074 5.88113L13.5074 8.88113L18.5074 10.8811H23.0074L26.5074 8.88113L24.5074 13.8811L28.0074 18.8811L29.5074 22.8811V28.3811V34.8811L31.0074 42.3811V47.3811L29.5074 50.8811H26.5074L24.5074 47.3811V42.3811V36.8811H21.0074L18.5074 39.8811L16.5074 43.8811L15.0074 50.8811V56.8811L16.5074 60.8811L18.5074 64.8811L16.5074 67.3811L12.5074 61.3811L10.5074 56.8811H8.50735L10.5074 62.8811L13.5074 67.3811L15.0074 70.8811V73.3811L10.5074 70.8811L4.50735 64.8811L2.00735 55.3811L0.507355 42.3811L4.50735 26.8811L7.00735 16.8811V5.88113L8.50735 1.38113Z" fill="#D9D9D9" stroke="black"/>
</svg>
