<svg width="33" height="129" viewBox="0 0 33 129" fill="none" xmlns="http://www.w3.org/2000/svg">
<path id="left_side_abs" d="M29.7535 1.00594C30.7383 -0.0441033 32.5001 0.652781 32.5001 2.09235V2.61225C32.5001 5.6355 30.6099 11.7828 30.6099 12.1859C30.6099 12.589 29.8223 17.5606 29.1922 19.744L27.7745 24.7828C27.1444 26.9663 25.8843 33.9533 25.8843 34.3564C25.8843 34.7595 24.3091 39.5631 23.5215 41.9146L21.6312 48.9688L19.2684 58.0386L17.8507 66.6045L17.3782 74.6665V83.7363C17.3782 85.8734 17.9284 88.1949 18.58 90.0924C18.8498 90.8781 21.8559 97.5558 22.1038 98.3487L23.0489 101.876L24.9391 106.915C25.8843 109.938 26.9239 113.163 27.302 113.969C28.4834 116.488 29.1922 120.015 29.6648 120.015C30.1373 120.015 32.0276 126.062 31.555 126.566C31.0825 127.07 32.5001 128.077 25.8843 128.077C22.7785 128.077 19.4667 127.21 16.7508 126.289C13.7163 125.261 11.1406 123.22 9.16755 120.696C8.03209 119.243 7.10496 117.63 6.60793 115.854C6.01631 113.741 5.5641 111.569 5.5641 110.946C5.5641 109.938 4.61901 105.403 4.61901 103.387V92.3022L3.67388 81.2169V69.9664C3.67388 69.741 3.65538 69.516 3.61858 69.2936C3.06112 65.9254 1.65517 56.311 1.189 52.9289C1.08572 52.1796 0.969511 51.3652 0.838503 50.4805C0.192466 46.1177 0.553878 42.0652 1.22898 38.7261C2.31392 33.3599 5.64029 28.8294 9.5527 24.9998C9.78983 24.7677 10.0354 24.5275 10.2898 24.2789C14.8263 19.8448 21.0012 13.0257 23.5215 10.1704L27.302 4.62775L29.5925 1.20846C29.6406 1.13669 29.6944 1.06895 29.7535 1.00594Z" fill="#D9D9D9" stroke="black"/>
</svg>
