<svg width="35" height="128" viewBox="0 0 35 128" fill="none" xmlns="http://www.w3.org/2000/svg">
<path id="right_side_abs" d="M3.40057 1.00207C2.33019 -0.068316 0.5 0.689773 0.5 2.20352V2.6015C0.499991 5.6015 2.50002 11.7015 2.50001 12.1015C2.49999 12.5015 3.33334 17.4348 4.00001 19.6015L5.50001 24.6015C6.16667 26.7682 7.50001 33.7015 7.50001 34.1015C7.50001 34.5015 9.16668 39.2682 10 41.6015L12 48.6015L14.5 57.6015L16 66.1015L16.5 74.1015V83.1015C16.5 85.2366 15.91 87.5571 15.2144 89.447C14.9128 90.2665 11.7761 96.7731 11.5 97.6015L10.5 101.102L8.50001 106.102C7.5 109.102 6.40001 112.302 6.00001 113.102C4.75001 115.602 4.00001 119.102 3.50001 119.102C3.00001 119.102 1 125.102 1.5 125.602C2 126.102 0.500008 127.102 7.50001 127.102C10.878 127.102 14.4864 126.192 17.4034 125.25C20.4503 124.267 23.0777 122.308 25.1274 119.849C26.3681 118.36 27.3891 116.69 27.9374 114.832C28.5428 112.78 29 110.706 29 110.102C29 109.102 30 104.602 30 102.602V91.6015L31 80.6015V69.4778C31 69.2274 31.0219 68.9775 31.0654 68.7309C31.6697 65.3066 33.1187 56.0087 33.6237 52.5684C33.7343 51.8146 33.8591 50.9941 34 50.1015C34.6686 45.8672 34.3174 41.9274 33.6334 38.6564C32.4847 33.1641 28.9173 28.615 24.7838 24.8205C24.5317 24.589 24.2705 24.3494 24 24.1015C19.2 19.7015 12.6667 12.9348 10 10.1015L6.00001 4.6015L3.58174 1.21593C3.52735 1.13978 3.46675 1.06824 3.40057 1.00207Z" fill="#D9D9D9" stroke="black"/>
</svg>
