<svg width="65" height="164" viewBox="0 0 65 164" fill="none" xmlns="http://www.w3.org/2000/svg">
<path id="abs" d="M35.7004 2.22678C35.384 2.40758 35.1011 2.64143 34.8639 2.91811L34.747 3.0545C33.463 4.55248 31.1142 4.44862 29.9674 2.84316C29.8048 2.61548 29.6115 2.41135 29.393 2.23656L29.0136 1.93302C27.854 1.00538 26.4133 0.5 24.9283 0.5H22.0408C20.833 0.5 19.6298 0.648119 18.4581 0.94104L15.7299 1.6231C13.3969 2.20636 11.1252 3.012 8.94595 4.02897L7.90441 4.51502C5.78623 5.5035 3.66091 6.5966 2.17465 8.40072C1.3303 9.42565 0.722313 10.4497 0.722313 11C0.722313 12.0388 0.222314 16.4328 0.722313 18.5C2.37486 22.7966 3.22231 27.3607 3.22231 31.9642V35.9031V47L3.72231 60V70.5V86.5L4.72231 99.5L6.22231 111.988L7.7223 120L9.8716 127.881C10.438 129.958 11.1527 131.991 12.0102 133.966L13.5451 137.5C12.2756 134.134 12.5843 134.08 15.2819 141.741C17.693 147.246 21.6507 154.946 26.1163 159.202C27.9764 160.974 30.6397 162.78 33.2013 162.581C35.3219 162.416 36.4312 160.69 37.8319 159.089L40.5772 155.952C42.0054 154.319 43.3137 152.586 44.492 150.765L46.0682 148.329C47.5015 146.114 48.7372 143.777 49.7611 141.345L52.2223 135.5C54.2223 128.167 58.4223 111.585 59.2223 103.926C60.0223 96.2674 60.2223 94.7054 60.2223 92.3372V86.5V79.5V73V65.5L61.2223 55.5V47V39.5V32V31.7595C61.2223 28.8184 61.5107 25.8844 62.0832 22.9995L62.7223 19.7791L63.4408 15.6267C63.6266 14.5532 63.5951 13.4532 63.3482 12.392C62.9423 10.6472 61.9725 9.08479 60.589 7.94674L59.5886 7.12383C58.6827 6.37866 57.6721 5.77074 56.5893 5.31958L52.2223 3.5L48.7223 2L46.2014 1.15969C44.8906 0.722754 43.5179 0.5 42.1362 0.5H41.1621C39.5633 0.5 37.9921 0.917238 36.604 1.71047L35.7004 2.22678Z" fill="#D9D9D9" stroke="black"/>
</svg>
