<svg width="59" height="71" viewBox="0 0 59 71" fill="none" xmlns="http://www.w3.org/2000/svg">
<path id="biceps right" d="M53 0.5H49L45 1L41 2.5L37 5L33 7.5C32.3333 8 30.5 9.5 28.5 11.5C26.5 13.5 24.3333 16 23.5 17L20 21L17.5 24.5L14.5 28.5L11 33.5L8.5 38L6 43.5L4 48L2.5 52.5L1.5 56.5L0.5 60.5V64L1.5 68L4 70.5H8.5L13.5 69L17.5 66.5L22.5 62.5L26 58L28.5 54.5C29.8333 52.8333 31.5 50 31.5 50C31.5 50 33.8333 46.6667 35 45.5L39 41L44 35L48 29.5L51.5 24.5L54.5 20L57 15.5L58 11.5V6.5L56.5 3L53 0.5Z" fill="#D9D9D9" stroke="black"/>
</svg>
