<svg width="59" height="71" viewBox="0 0 59 71" fill="none" xmlns="http://www.w3.org/2000/svg">
<path id="biceps left" d="M5.5 0.5H9.5L13.5 1L17.5 2.5L21.5 5L25.5 7.5C26.1667 8 28 9.5 30 11.5C32 13.5 34.1667 16 35 17L38.5 21L41 24.5L44 28.5L47.5 33.5L50 38L52.5 43.5L54.5 48L56 52.5L57 56.5L58 60.5V64L57 68L54.5 70.5H50L45 69L41 66.5L36 62.5L32.5 58L30 54.5C28.6667 52.8333 27 50 27 50C27 50 24.6667 46.6667 23.5 45.5L19.5 41L14.5 35L10.5 29.5L7 24.5L4 20L1.5 15.5L0.5 11.5V6.5L2 3L5.5 0.5Z" fill="#D9D9D9" stroke="black"/>
</svg>
