<svg width="81" height="66" viewBox="0 0 81 66" fill="none" xmlns="http://www.w3.org/2000/svg">
<path id="left chest" d="M0.5 9.4313L3.97799 4.96565L7.95284 2.48473L13.4182 1.49237L18.3868 0.5H23.8522H29.8145H35.2799L40.2484 1.49237L42.7327 2.48473L45.217 4.96565L47.2044 6.95038L50.1855 9.4313L54.6572 13.8969L60.1226 19.8511L65.0912 24.813L70.0598 29.7748L74.0346 34.2405L79.5 39.2023H75.5251H71.5503L68.5692 41.187L65.0912 44.1641L62.6069 46.645L59.1289 50.1183L56.1478 54.0878L53.1667 58.0573L49.1918 62.5229L47.2044 64.0115L44.2233 65.5H40.2484H33.2925L27.827 64.0115L22.3616 62.5229L16.3994 61.0343L9.94025 58.0573L3.97799 54.0878L0.5 48.6298V37.2176V27.7901V17.3702V9.4313Z" fill="#D9D9D9" stroke="black"/>
</svg>
