<svg width="82" height="67" viewBox="0 0 82 67" fill="none" xmlns="http://www.w3.org/2000/svg">
<path id="Right Chest" d="M80.7933 9.5L77.2933 5L73.2933 2.5L67.7933 1.5L62.7933 0.5H57.2933H51.2933H45.7933L40.7933 1.5L38.2933 2.5L35.7933 5L33.7933 7L30.7933 9.5L26.2933 14L20.7933 20L15.7933 25L10.7933 30L6.7933 34.5L1.2933 39.5H5.2933H9.2933L12.2933 41.5L15.7933 44.5L18.2933 47L21.7933 50.5L24.7933 54.5L27.7933 58.5L31.7933 63L33.7933 64.5L36.7933 66H40.7933H47.7933L53.2933 64.5L58.7933 63L64.7933 61.5L71.2933 58.5L77.2933 54.5L80.7933 49V37.5V28V17.5V9.5Z" fill="#D9D9D9" stroke="black"/>
</svg>
