<svg width="76" height="90" viewBox="0 0 76 90" fill="none" xmlns="http://www.w3.org/2000/svg">
<path id="forearm_front_L" d="M20.5076 0.292786L22.4684 6.79279L22.9586 12.2928V18.2928C23.122 18.7928 21.8802 22.2928 19.5272 24.2928C17.1743 26.2928 13.6449 25.4595 11.6841 25.7928C11.3573 25.9595 9.91942 25.8928 6.78217 24.2928C3.64491 22.6928 1.22657 21.2928 0.409576 20.7928L5.31152 27.7928L9.23312 33.2928C8.74293 33.1261 9.037 34.1928 14.135 39.7928C19.2331 45.3928 19.2004 45.4595 18.5468 44.7928L24.9194 51.2928L33.7429 60.2928L42.0762 68.2928L52.3704 77.2928L60.2135 84.2928L63.6449 87.2928C63.8083 88.2928 65.5076 89.6928 69.037 87.2928C72.5665 84.8928 74.756 82.6261 75.4096 81.7928V77.2928L72.9586 70.7928L69.037 63.7928L65.6056 56.7928L60.2135 47.7928L56.2919 41.2928L52.3704 35.7928L47.9586 29.7928L43.0566 24.2928C42.2396 23.1261 39.037 20.2928 36.6841 18.2928C34.3311 16.2928 32.5991 14.7928 31.7821 14.2928L27.3704 9.79279L20.5076 0.292786Z" fill="#D9D9D9" stroke="black"/>
</svg>
