<svg width="78" height="90" viewBox="0 0 78 90" fill="none" xmlns="http://www.w3.org/2000/svg">
<path id="forearm_front_R" d="M56.5 0.2966L54.5 6.7966L54 12.2966V18.2966C53.8333 18.7966 55.1 22.2966 57.5 24.2966C59.9 26.2966 63.5 25.4633 65.5 25.7966C65.8333 25.9633 67.3 25.8966 70.5 24.2966C73.7 22.6966 76.1667 21.2966 77 20.7966L72 27.7966L68 33.2966C68.5 33.1299 68.2 34.1966 63 39.7966C57.8 45.3966 57.8333 45.4633 58.5 44.7966L52 51.2966L43 60.2966L34.5 68.2966L24 77.2966L16 84.2966L12.5 87.2966C12.3333 88.2966 10.6 89.6966 7 87.2966C3.4 84.8966 1.16667 82.6299 0.5 81.7966V77.2966L3 70.7966L7 63.7966L10.5 56.7966L16 47.7966L20 41.2966L24 35.7966L28.5 29.7966L33.5 24.2966C34.3333 23.1299 37.6 20.2966 40 18.2966C42.4 16.2966 44.1667 14.7966 45 14.2966L49.5 9.7966L56.5 0.2966Z" fill="#D9D9D9" stroke="black"/>
</svg>
