<svg width="39" height="85" viewBox="0 0 39 85" fill="none" xmlns="http://www.w3.org/2000/svg">
<path d="M26.625 1.59241C26.625 4.09241 27.29 9.29241 29.95 10.0924C32.61 10.8924 36.7583 11.7591 38.5 12.0924C37.2333 12.2591 34.415 13.5924 33.275 17.5924C32.135 21.5924 34.3833 28.2591 35.65 31.0924L33.275 41.5924L29.95 50.0924L28.05 55.0924L25.2 64.0924H22.35L20.45 59.5924V46.0924L14.275 50.0924L12.375 55.0924L10 64.0924L12.375 71.5924V76.5924L10 79.0924L7.15 83.5924L2.4 79.0924L0.499999 69.5924V55.0924L4.3 41.5924L10 28.0924L17.125 17.5924L21.4 9.09241L26.625 1.59241Z" fill="#D9D9D9" stroke="black"/>
</svg>
