<svg width="84" height="234" viewBox="0 0 84 234" fill="none" xmlns="http://www.w3.org/2000/svg">
<path id="quad_R" d="M19.1439 2.1726C20.4051 0.687577 22.4463 0.125096 24.2902 0.754466C27.1993 1.74744 32.6392 3.39744 34.9913 5.37645C35.8845 6.12801 36.9251 7.0555 38.1335 8.19316C44.4933 14.1803 48.6818 20.999 49.9811 23.66L55.6615 32.6407C55.6615 32.6407 58.3422 37.2308 62.8789 43.6171C65.8985 47.8679 69.3901 51.3966 72.3504 53.9678C74.861 56.1484 77.2658 58.4724 79.1916 61.1833L81.1917 63.9988C81.6963 64.7092 82.0849 65.4952 82.3429 66.3275C83.0751 68.6896 82.7059 71.2558 81.3376 73.3158L78.8602 77.0454L76.9371 81.0006C75.4816 83.9939 74.5766 87.2247 74.2653 90.5385C73.896 94.47 73.8241 98.5543 73.192 102.452C72.9493 103.949 72.6142 105.773 72.1584 107.979C70.5087 115.962 67.0031 127.936 65.972 132.926L61.3323 150.388L58.2391 166.853L56.6926 179.326L54.6304 193.795L52.0528 205.769L48.4441 217.245L46.9348 221.209C45.5412 224.87 45.2465 229.383 42.2473 231.902C41.6601 232.396 40.9755 232.711 40.1957 232.711C37.1006 232.711 31.7241 227.572 30.9048 224.587C30.7479 224.016 30.58 223.398 30.4006 222.733C29.3624 218.881 28.4694 215.275 27.6302 212.387C26.3271 207.902 21.5361 207.166 16.9969 208.264C12.6064 209.326 10.9857 206.032 10.1075 203.02C9.48394 200.881 9.10061 198.675 8.77523 196.471L7.20187 185.812L5.65528 169.846L3.59316 150.388L2.04658 132.926L0.5 119.454V105.983V91.0154V77.0454V66.7668C0.5 63.9793 0.75901 61.1978 1.27369 58.4582L3.59316 46.1118C3.59316 46.1118 5.9646 38.8274 9.26398 27.6514C12.2066 17.6837 15.0946 9.62097 16.5381 5.87026C16.838 5.09109 17.2724 4.37622 17.8129 3.73986L19.1439 2.1726Z" fill="#D9D9D9" stroke="black"/>
</svg>
