<svg width="81" height="234" viewBox="0 0 81 234" fill="none" xmlns="http://www.w3.org/2000/svg">
<path id="quad_L" d="M62.1429 2.15406C60.9334 0.682437 58.9324 0.124622 57.136 0.758218C54.3433 1.74314 49.0769 3.39376 46.8393 5.33338C45.961 6.09473 44.9343 7.03907 43.7378 8.20288C37.5697 14.2029 33.5072 21.0362 32.2471 23.7029L26.7378 32.7029C26.7378 32.7029 24.1378 37.3029 19.7378 43.7029C16.8327 47.9285 13.4771 51.4421 10.6209 54.0134C8.14718 56.2403 5.77505 58.6032 3.8894 61.346L1.98876 64.1105C1.49113 64.8343 1.10925 65.6312 0.856852 66.4726C0.146609 68.8401 0.507168 71.3997 1.84377 73.4789L4.23776 77.2029L6.08622 81.1308C7.5096 84.1555 8.39261 87.406 8.69526 90.7351C9.05306 94.671 9.12146 98.7506 9.73387 102.655C9.96937 104.156 10.2948 105.988 10.7378 108.203C12.3378 116.203 15.7378 128.203 16.7378 133.203L21.2378 150.703L24.2378 167.203L25.7378 179.703L27.7378 194.203L30.2378 206.203L33.7378 217.703L35.2568 221.826C36.5722 225.396 36.8498 229.714 39.6426 232.298C40.2351 232.846 40.9343 233.203 41.7378 233.203C44.7287 233.203 49.9274 228.147 50.6969 225.257C50.8639 224.629 51.0439 223.946 51.2379 223.203C52.2629 219.274 53.142 215.6 53.9686 212.68C55.2049 208.313 59.8351 207.602 64.2379 208.703C68.5405 209.779 70.1006 206.397 70.9462 203.354C71.5252 201.269 71.8915 199.128 72.1974 196.986L73.7379 186.203L75.2379 170.203L77.2379 150.703L78.7379 133.203L80.2379 119.703V106.203V91.2029V77.2029V66.7605C80.2379 64.0609 79.995 61.3668 79.5121 58.7107L77.2379 46.2029C77.2379 46.2029 74.9379 38.9029 71.7379 27.7029C68.8709 17.6683 66.0574 9.56027 64.6639 5.82397C64.3854 5.07729 63.9801 4.38919 63.4741 3.77354L62.1429 2.15406Z" fill="#D9D9D9" stroke="black"/>
</svg>
