<svg width="66" height="209" viewBox="0 0 66 209" fill="none" xmlns="http://www.w3.org/2000/svg">
<g id="shin_R">
<path d="M25.7798 3.69462L26.2367 1.86687C26.5945 0.43569 28.4261 0.0167199 29.3705 1.15002C29.5206 1.3301 29.6341 1.53771 29.7047 1.76124L31.5379 7.56638C32.2377 9.78266 33.3631 11.8412 34.851 13.6267L34.9696 13.7689C36.6972 15.842 38.8908 17.4769 41.3711 18.5399C43.5 19.4523 45.792 19.9227 48.1082 19.9227H49.754C52.6235 19.9227 55.4666 19.3752 58.1308 18.3095L61.2949 17.0439C61.4954 16.9637 61.6814 16.851 61.8454 16.7105C63.1234 15.615 65.0978 16.5224 65.0978 18.2056V33.9227C65.0978 45.1227 64.0978 48.4227 64.0978 48.4227C63.0978 52.4227 60.33 61.7394 58.5978 70.4227C58.2385 72.2236 56.2365 84.0257 55.999 85.8467L54.0978 100.423L50.5978 118.923L48.5978 137.423V150.923V156.379C48.5978 158.737 48.3946 161.091 47.9905 163.414C47.0709 168.702 47.5637 174.052 48.2503 179.375C48.4597 180.999 48.5978 182.831 48.5978 184.923C48.5978 187.375 46.2844 187.648 43.8606 188.358C41.6447 189.008 40.5978 191.258 40.5978 193.567C40.5978 195.103 40.1592 196.618 39.1632 197.788C37.2025 200.09 33.8401 203.302 29.5978 205.423C27.1108 206.666 26.0438 207.298 25.7575 207.573C26.3512 207.545 26.7982 207.489 27.0977 207.423C26.2639 207.701 25.3992 207.917 25.7575 207.573C23.3777 207.684 18.6407 207.344 11.5978 205.423C0.597762 202.423 5.59775 201.923 2.59775 200.923C0.197748 200.123 0.0977528 197.589 1.09775 195.923L2.03137 194.055C3.40535 191.308 5.05713 188.708 6.96086 186.296L11.5978 180.423C14.0978 177.089 19.7977 168.923 22.5977 162.923C22.8169 162.453 23.0273 162.005 23.229 161.577C25.6497 156.45 27.7506 151.077 28.4326 145.447C29.1987 139.124 29.8479 130.427 29.5978 120.923C29.5761 120.101 29.5515 119.31 29.5241 118.548C29.1003 106.753 26.0726 93.8899 24.5481 82.186C23.9527 77.6152 23.2955 72.3537 22.5977 66.4227C21.1956 54.5049 21.5977 47.9227 21.5977 47.9227C21.5977 43.9227 21.7977 29.9227 22.5977 19.9227C22.839 16.9067 23.0864 14.6335 23.3233 12.9386C23.6203 10.8144 25.2596 5.77545 25.7798 3.69462Z" fill="#D9D9D9"/>
<path d="M22.5977 19.9227C22.839 16.9067 23.0864 14.6335 23.3233 12.9386C23.6203 10.8144 25.2596 5.77545 25.7798 3.69462L26.2367 1.86687C26.5945 0.43569 28.4261 0.0167199 29.3705 1.15002C29.5206 1.3301 29.6341 1.53771 29.7047 1.76124L31.5379 7.56638C32.2377 9.78266 33.3631 11.8412 34.851 13.6267L34.9696 13.7689C36.6972 15.842 38.8908 17.4769 41.3711 18.5399C43.5 19.4523 45.792 19.9227 48.1082 19.9227H49.754C52.6235 19.9227 55.4666 19.3752 58.1308 18.3095L61.2949 17.0439C61.4954 16.9637 61.6814 16.851 61.8454 16.7105C63.1234 15.615 65.0978 16.5224 65.0978 18.2056C65.0978 21.6709 65.0978 26.9422 65.0978 33.9227C65.0978 45.1227 64.0978 48.4227 64.0978 48.4227C63.0978 52.4227 60.33 61.7394 58.5978 70.4227C58.2385 72.2236 56.2365 84.0257 55.999 85.8467L54.0978 100.423L50.5978 118.923L48.5978 137.423V150.923V156.379C48.5978 158.737 48.3946 161.091 47.9905 163.414C47.0709 168.702 47.5637 174.052 48.2503 179.375C48.4597 180.999 48.5978 182.831 48.5978 184.923C48.5978 187.375 46.2844 187.648 43.8606 188.358C41.6447 189.008 40.5978 191.258 40.5978 193.567C40.5978 195.103 40.1592 196.618 39.1632 197.788C37.2025 200.09 33.8401 203.302 29.5978 205.423C23.9978 208.223 25.5977 207.923 27.0977 207.423C25.5977 207.756 20.3977 207.823 11.5978 205.423C0.597762 202.423 5.59775 201.923 2.59775 200.923C0.197748 200.123 0.0977528 197.589 1.09775 195.923L2.03137 194.055C3.40535 191.308 5.05713 188.708 6.96086 186.296L11.5978 180.423C14.0978 177.089 19.7977 168.923 22.5977 162.923C22.8169 162.453 23.0273 162.005 23.229 161.578C25.6497 156.45 27.7506 151.077 28.4326 145.447C29.1987 139.124 29.8479 130.427 29.5978 120.923C29.5761 120.101 29.5515 119.31 29.5241 118.548C29.1003 106.753 26.0726 93.8899 24.5481 82.186C23.9527 77.6152 23.2955 72.3537 22.5977 66.4227C21.1956 54.5049 21.5977 47.9227 21.5977 47.9227C21.5977 43.9227 21.7977 29.9227 22.5977 19.9227Z" stroke="black"/>
</g>
</svg>
