<svg width="65" height="209" viewBox="0 0 65 209" fill="none" xmlns="http://www.w3.org/2000/svg">
<g id="shin_L">
<path d="M38.9998 1.85572L39.4545 3.69146C39.9677 5.76343 41.5952 10.8207 41.888 12.9351C42.1227 14.63 42.3678 16.9029 42.6068 19.9186C43.3994 29.9186 43.5975 43.9186 43.5975 47.9186C43.5975 47.9186 43.9959 54.5008 42.6068 66.4186C41.9116 72.3833 41.257 77.671 40.6644 82.2599C39.1592 93.9176 36.1692 106.722 35.7472 118.469C35.719 119.254 35.6937 120.07 35.6715 120.919C35.423 130.45 36.0706 139.169 36.8325 145.498C37.5059 151.092 39.577 156.434 41.9646 161.538C42.1696 161.976 42.3836 162.436 42.6068 162.919C45.3809 168.919 51.0281 177.085 53.505 180.419L58.1002 186.294C59.9856 188.704 61.6201 191.3 62.9785 194.043L63.9079 195.919C64.8986 197.585 64.7995 200.119 62.4217 200.919C59.4495 201.919 64.4032 202.419 53.505 205.419C46.5272 207.339 41.834 207.68 39.4762 207.569C39.8313 207.913 38.9746 207.697 38.1484 207.419C38.4451 207.485 38.888 207.541 39.4762 207.569C39.1926 207.294 38.1355 206.662 35.6715 205.419C31.471 203.299 28.1413 200.09 26.1982 197.788C25.2081 196.615 24.7733 195.1 24.7733 193.565C24.7733 191.253 23.73 188.999 21.5122 188.346C19.1212 187.642 16.8473 187.361 16.8473 184.919C16.8473 182.828 16.984 180.995 17.1915 179.372C17.8716 174.049 18.3602 168.699 17.449 163.411C17.0486 161.087 16.8473 158.733 16.8473 156.375V150.919V137.419L14.8658 118.919L11.3982 100.419L9.51412 85.8389C9.28031 84.0296 7.29359 72.2083 6.93987 70.4186C5.22368 61.7353 2.48149 52.4186 1.49074 48.4186C1.49074 48.4186 0.5 45.1186 0.5 33.9186V18.1797C0.5 16.5112 2.46081 15.615 3.72268 16.7067C3.88486 16.847 4.0691 16.9595 4.26795 17.0398L7.39442 18.3021C10.0389 19.3698 12.8641 19.9186 15.716 19.9186H17.3162C19.6212 19.9186 21.9017 19.4465 24.0173 18.5313C26.4678 17.4713 28.6319 15.845 30.3318 13.7861L30.4763 13.6111C31.9443 11.833 33.0534 9.78688 33.7419 7.58624L35.5672 1.752C35.6361 1.53181 35.7471 1.32709 35.894 1.14918C36.8265 0.0197045 38.6476 0.433997 38.9998 1.85572Z" fill="#D9D9D9"/>
<path d="M42.6068 19.9186C42.3678 16.9029 42.1227 14.63 41.888 12.9351C41.5952 10.8207 39.9677 5.76343 39.4545 3.69146L38.9998 1.85572C38.6476 0.433997 36.8265 0.0197045 35.894 1.14918C35.7471 1.32709 35.6361 1.53181 35.5672 1.752L33.7419 7.58624C33.0534 9.78688 31.9443 11.833 30.4763 13.6111L30.3318 13.7861C28.6319 15.845 26.4678 17.4713 24.0173 18.5313C21.9017 19.4465 19.6212 19.9186 17.3162 19.9186H15.716C12.8641 19.9186 10.0389 19.3698 7.39442 18.3021L4.26795 17.0398C4.0691 16.9595 3.88486 16.847 3.72268 16.7067C2.46081 15.615 0.5 16.5112 0.5 18.1797C0.5 21.6447 0.5 26.9235 0.5 33.9186C0.5 45.1186 1.49074 48.4186 1.49074 48.4186C2.48149 52.4186 5.22368 61.7353 6.93987 70.4186C7.29359 72.2083 9.28031 84.0296 9.51412 85.8389L11.3982 100.419L14.8658 118.919L16.8473 137.419V150.919V156.375C16.8473 158.733 17.0486 161.087 17.449 163.411C18.3602 168.699 17.8716 174.049 17.1915 179.372C16.984 180.995 16.8473 182.828 16.8473 184.919C16.8473 187.361 19.1212 187.642 21.5122 188.346C23.73 188.999 24.7733 191.253 24.7733 193.565C24.7733 195.1 25.2081 196.615 26.1982 197.788C28.1413 200.09 31.471 203.299 35.6715 205.419C41.2197 208.219 39.6345 207.919 38.1484 207.419C39.6345 207.752 44.7864 207.819 53.505 205.419C64.4032 202.419 59.4495 201.919 62.4217 200.919C64.7995 200.119 64.8986 197.585 63.9079 195.919L62.9785 194.043C61.6201 191.3 59.9856 188.704 58.1002 186.294L53.505 180.419C51.0281 177.085 45.3809 168.919 42.6068 162.919C42.3836 162.436 42.1696 161.976 41.9646 161.538C39.577 156.434 37.5059 151.092 36.8325 145.498C36.0706 139.169 35.423 130.45 35.6715 120.919C35.6937 120.07 35.719 119.254 35.7472 118.469C36.1692 106.722 39.1592 93.9176 40.6644 82.2599C41.257 77.671 41.9116 72.3833 42.6068 66.4186C43.9959 54.5008 43.5975 47.9186 43.5975 47.9186C43.5975 43.9186 43.3994 29.9186 42.6068 19.9186Z" stroke="black"/>
</g>
</svg>
