<svg width="59" height="55" viewBox="0 0 59 55" fill="none" xmlns="http://www.w3.org/2000/svg">
<g id="shoulder_R">
<path d="M53.9743 5.49999L56.9743 2.49999L53.9743 2L51.7807 1.5L48.7807 0.959253L44.7807 0.5H39.4743H34.9743H31.4743L28.2595 0.959253C28.2299 1.04814 27.6077 1.43333 25.4743 2.49999C22.2743 4.09999 22.141 4.49999 22.4743 4.49999L19.9743 7.5L17.9743 10.5L15.4743 14.5L12.9743 19C12.2807 20.5 11.2807 22.5 10.9743 23C10.6788 23.4823 9.47435 26.8333 8.97435 28.5L7.47435 32.5L5.97435 37.5L4.7807 41.5L3.47435 45.5L2.47435 48.5L0.474347 54.5L3.47435 51.5L5.2807 50L7.47435 48L9.2807 46.5L10.9743 45L12.2807 44L13.2807 43.5L14.2807 43L15.2807 42.5L17.2807 41.5L18.7807 40.5L20.9743 38.5L22.9743 36.5L25.4743 34L28.7807 30.5L30.9743 28.5L33.4743 26L36.4743 23L38.9743 20.5L41.4743 18L43.9743 15.5L45.9743 13.5L47.9743 11.5L50.9743 8.49999L53.9743 5.49999Z" fill="#D9D9D9"/>
<path d="M28.2595 0.959253L31.4743 0.5H34.9743H39.4743H44.7807L48.7807 0.959253L51.7807 1.5L53.9743 2L56.9743 2.49999L53.9743 5.49999L50.9743 8.49999L47.9743 11.5L45.9743 13.5L43.9743 15.5L41.4743 18L38.9743 20.5L36.4743 23L33.4743 26L30.9743 28.5L28.7807 30.5L25.4743 34L22.9743 36.5L20.9743 38.5L18.7807 40.5L17.2807 41.5L15.2807 42.5L14.2807 43L13.2807 43.5L12.2807 44L10.9743 45L9.2807 46.5L7.47435 48L5.2807 50L3.47435 51.5L0.474347 54.5L2.47435 48.5L3.47435 45.5L4.7807 41.5L5.97435 37.5L7.47435 32.5L8.97435 28.5C9.47435 26.8333 10.6788 23.4823 10.9743 23C11.2807 22.5 12.2807 20.5 12.9743 19L15.4743 14.5L17.9743 10.5L19.9743 7.5L22.4743 4.49999C22.141 4.49999 22.2743 4.09999 25.4743 2.49999C27.6077 1.43333 28.2299 1.04814 28.2595 0.959253ZM28.2595 0.959253L27.7807 1C27.9474 0.944446 28.2743 0.914807 28.2595 0.959253Z" stroke="black"/>
</g>
</svg>
