<svg width="58" height="56" viewBox="0 0 58 56" fill="none" xmlns="http://www.w3.org/2000/svg">
<g id="shoulder_l">
<path d="M3.99457 5.59259L1.02112 2.53703L3.99457 2.02778L6.1688 1.51852L9.14225 0.967757L13.1069 0.5H18.3663H22.8264H26.2955L29.4818 0.967757C29.5112 1.05829 30.1279 1.45061 32.2424 2.53703C35.414 4.16666 35.5462 4.57407 35.2158 4.57407L37.6937 7.62963L39.676 10.6852L42.1539 14.7593L44.6317 19.3426C45.3192 20.8704 46.3104 22.9074 46.614 23.4167C46.907 23.9079 48.1008 27.321 48.5963 29.0185L50.0831 33.0926L51.5698 38.1852L52.7529 42.2593L54.0477 46.3333L55.0388 49.3889L57.0211 55.5L54.0477 52.4444L52.2573 50.9167L50.0831 48.8796L48.2927 47.3519L46.614 45.8241L45.3192 44.8056L44.3281 44.2963L43.3369 43.787L42.3458 43.2778L40.3635 42.2593L38.8768 41.2407L36.7025 39.2037L34.7202 37.1667L32.2424 34.6204L28.9653 31.0556L26.791 29.0185L24.3132 26.4722L21.3397 23.4167L18.8618 20.8704L16.3839 18.3241L13.9061 15.7778L11.9238 13.7407L9.94147 11.7037L6.96802 8.64814L3.99457 5.59259Z" fill="#D9D9D9"/>
<path d="M29.4818 0.967757L26.2955 0.5H22.8264H18.3663H13.1069L9.14225 0.967757L6.1688 1.51852L3.99457 2.02778L1.02112 2.53703L3.99457 5.59259L6.96802 8.64814L9.94147 11.7037L11.9238 13.7407L13.9061 15.7778L16.3839 18.3241L18.8618 20.8704L21.3397 23.4167L24.3132 26.4722L26.791 29.0185L28.9653 31.0556L32.2424 34.6204L34.7202 37.1667L36.7025 39.2037L38.8768 41.2407L40.3635 42.2593L42.3458 43.2778L43.3369 43.787L44.3281 44.2963L45.3192 44.8056L46.614 45.8241L48.2927 47.3519L50.0831 48.8796L52.2573 50.9167L54.0477 52.4444L57.0211 55.5L55.0388 49.3889L54.0477 46.3333L52.7529 42.2593L51.5698 38.1852L50.0831 33.0926L48.5963 29.0185C48.1008 27.321 46.907 23.9079 46.614 23.4167C46.3104 22.9074 45.3192 20.8704 44.6317 19.3426L42.1539 14.7593L39.676 10.6852L37.6937 7.62963L35.2158 4.57407C35.5462 4.57407 35.414 4.16666 32.2424 2.53703C30.1279 1.45061 29.5112 1.05829 29.4818 0.967757ZM29.4818 0.967757L29.9564 1.00926C29.7912 0.952676 29.4671 0.922489 29.4818 0.967757Z" stroke="black"/>
</g>
</svg>
